<svg width="600" height="200" viewBox="0 0 600 200" fill="none" xmlns="http://www.w3.org/2000/svg">
<path d="M200 100C200 155.228 155.228 200 100 200C44.7715 200 0 155.228 0 100C0 44.7715 44.7715 0 100 0C155.228 0 200 44.7715 200 100Z" fill="#0B5240"/>
<path d="M400 100C400 155.228 355.228 200 300 200C244.772 200 200 155.228 200 100C200 44.7715 244.772 0 300 0C355.228 0 400 44.7715 400 100Z" fill="#0B5240"/>
<path d="M600 100C600 155.228 555.228 200 500 200C444.772 200 400 155.228 400 100C400 44.7715 444.772 0 500 0C555.228 0 600 44.7715 600 100Z" fill="#0B5240"/>
</svg>
