<?xml version="1.0" encoding="utf-8"?>
<svg width="605" height="600" viewBox="1.698 2.387 601.353 596.031" fill="none" xmlns="http://www.w3.org/2000/svg">
  <rect x="1.766" y="-1.544" width="609.057" height="603.801" style="stroke: rgb(0, 0, 0); fill: rgb(255, 255, 255); fill-rule: nonzero;"/>
  <path d="M 237.177 303.984 C 237.177 346.449 202.752 380.874 160.288 380.874 C 117.823 380.874 83.398 346.449 83.398 303.984 C 83.398 261.52 117.823 227.095 160.288 227.095 C 202.752 227.095 237.177 261.52 237.177 303.984 Z" fill="#0B5240" style=""/>
  <path d="M 390.956 303.984 C 390.956 346.449 356.531 380.874 314.066 380.874 C 271.602 380.874 237.177 346.449 237.177 303.984 C 237.177 261.52 271.602 227.095 314.066 227.095 C 356.531 227.095 390.956 261.52 390.956 303.984 Z" fill="#0B5240" style=""/>
  <path d="M 544.735 303.984 C 544.735 346.449 510.31 380.874 467.845 380.874 C 425.381 380.874 390.956 346.449 390.956 303.984 C 390.956 261.52 425.381 227.095 467.845 227.095 C 510.31 227.095 544.735 261.52 544.735 303.984 Z" fill="#0B5240" style=""/>
  <path d="M 233.333 150.206 C 233.333 192.67 198.908 227.095 156.443 227.095 C 113.978 227.095 79.554 192.67 79.554 150.206 C 79.554 107.741 113.978 73.316 156.443 73.316 C 198.908 73.316 233.333 107.741 233.333 150.206 Z" fill="#0B5240" style=""/>
  <path d="M 233.333 457.763 C 233.333 500.228 198.908 534.653 156.443 534.653 C 113.978 534.653 79.554 500.228 79.554 457.763 C 79.554 415.299 113.978 380.874 156.443 380.874 C 198.908 380.874 233.333 415.299 233.333 457.763 Z" fill="#0B5240" style=""/>
  <path d="M 540.89 150.206 C 540.89 192.67 506.465 227.095 464.001 227.095 C 421.536 227.095 387.111 192.67 387.111 150.206 C 387.111 107.741 421.536 73.316 464.001 73.316 C 506.465 73.316 540.89 107.741 540.89 150.206 Z" fill="#0B5240" style=""/>
  <path d="M 540.89 457.763 C 540.89 500.228 506.465 534.653 464.001 534.653 C 421.536 534.653 387.111 500.228 387.111 457.763 C 387.111 415.299 421.536 380.874 464.001 380.874 C 506.465 380.874 540.89 415.299 540.89 457.763 Z" fill="#0B5240" style=""/>
</svg>