<svg width="716" height="392" viewBox="0 0 716 392" fill="none" xmlns="http://www.w3.org/2000/svg">
<path d="M696.613 97.6948L696.4 97.5509V97.7668L696.613 97.6948V97.6948ZM694.488 95.7519L694.984 95.536V95.2482L694.488 95.7519ZM703.271 90.1391L703.2 89.1317L703.058 88.556L703.271 90.1391H703.271ZM672.318 82.7273L671.822 82.9432L667.785 84.1665L666.369 84.6702L664.739 85.1739L664.173 85.3898V85.6057L664.385 89.3475L664.598 92.8016L664.81 95.9678L665.164 96.1837L666.439 95.8239L672.177 94.0968L672.318 94.4566L682.518 90.4989L682.588 90.6428L683.509 90.283L686.767 88.9877L689.884 92.8016L690.309 92.4418L690.521 91.3624L690.451 93.0894H691.159L691.371 93.9529L692.009 95.1762L695.338 91.0746L698.1 92.01L698.738 90.5708L703.271 88.1242L701.358 84.3104L701.854 86.757L699.517 88.556L696.896 88.7719L691.655 83.0871L689.317 79.4892L691.655 76.9706L689.246 76.8267L688.255 74.452L688.184 74.3081L684.147 78.7696L675.222 81.7919L672.318 82.7273Z" fill="#D6D6D6" fill-opacity="0.3" stroke="white" stroke-opacity="0.6" stroke-width="0.970631" stroke-linejoin="round"/>
<path d="M404.173 38.8862L405.595 43.9314L408.582 62.1222L410.005 69.3702L410.431 75.7654L412.067 79.6025L412.423 82.8712L412.707 83.9371L412.636 84.1502L409.791 88.8401L411.64 91.9666L415.196 116.979L415.339 120.248L418.895 120.035L432.905 119.253L467.896 116.34L471.381 115.984V115.629L470.386 110.158L466.047 107.955L462.633 104.402L457.228 101.133L455.521 100.991L452.89 99.0014L453.601 89.1954L451.112 86.9215L451.965 82.9422L456.517 78.8209L455.735 70.2939L457.371 68.4464L462.918 62.6196L469.248 54.519L471.666 52.8136L475.933 50.7529L480.413 47.4132L477.426 47.9817L475.648 46.6316L468.821 47.5553L467.754 46.2763L461.638 48.7633L456.731 46.7026L455.379 45.0683L451.468 45.3525L448.836 44.0024L449.69 43.0076L446.347 41.9417H443.36L438.595 44.0024L437.67 42.5813L430.132 41.5154L427.571 35.1202L427.287 33.2016L424.015 32.2778L424.3 37.7493L415.623 38.3888L404.884 38.8152L404.173 38.8862L404.173 38.8862Z" fill="#D6D6D6" fill-opacity="0.6" stroke="white" stroke-opacity="0.6" stroke-width="0.970631" stroke-linejoin="round"/>
<path d="M335.376 39.0895L311.797 37.5345L294.629 35.9088L277.533 33.9298L266.919 32.5161L249.965 29.9009L241.488 28.4873L222.539 24.8826L220.545 24.4585L217.481 38.8774L218.835 41.4926L219.903 45.5214L219.262 46.0869L220.616 49.7623L222.468 51.3173L227.739 60.0817L228.238 61.566L230.375 61.4247L227.882 73.0163L226.885 73.2991L225.531 77.1865L232.583 77.6813L233.153 80.9326L237.142 90.6159L237.855 91.1814L240.633 96.8359L241.345 96.2704L247.258 96.1997L254.738 96.9772L256.59 94.574L258.798 98.5322L259.225 98.7442L259.297 98.3201L260.294 91.3934L284.656 94.362L304.104 96.1997L314.362 97.0479L332.669 98.1081L333.595 98.1788H333.809L333.88 97.1893L334.094 92.3123L334.379 85.8803L334.45 84.2546L334.592 81.4274L335.732 59.2336L336.658 41.9874L336.73 39.1602L335.376 39.0895L335.376 39.0895Z" fill="#D6D6D6" fill-opacity="0.6" stroke="white" stroke-opacity="0.6" stroke-width="0.970631" stroke-linejoin="round"/>
<path d="M402.004 38.7307L380.609 39.1715L365.662 39.098L352.839 38.8042L337.821 38.2165L337.041 38.1431L336.971 41.0814L336.05 59.0052L334.916 82.0711L334.774 85.0094L337.537 85.1563L368.779 86.0378L397.611 85.8174L409.584 85.4501L411.992 85.3032L411.709 84.2014L411.355 80.8223L409.726 76.8555L409.3 70.2443L407.884 62.7516L404.908 43.9463L403.491 38.7307H402.004L402.004 38.7307Z" fill="#D6D6D6" fill-opacity="0.6" stroke="white" stroke-opacity="0.6" stroke-width="0.970631" stroke-linejoin="round"/>
<path d="M299.075 363.696L296.865 362.046L294.941 362.549L295.368 366.566L292.731 369.865L295.012 375.102L295.654 380.481L298.291 382.203L299.931 379.549L302.853 377.397L306.417 376.464L310.338 373.093L306.489 369.793L306.417 367.785L299.075 363.696H299.075ZM286.102 357.886L285.032 356.954L284.034 358.316L286.102 357.886ZM280.755 354.802L281.04 352.148L279.686 351.932L280.755 354.802ZM285.246 350.426L284.034 351L284.89 353.726L286.743 353.869L287.313 356.236L289.309 357.097L293.729 355.017L289.594 351.574L285.246 350.426ZM276.122 347.485L275.48 349.422L278.545 349.35L281.397 350.067L279.9 347.7L276.122 347.485V347.485ZM267.14 341.818L265.501 340.24L262.364 342.679L264.36 346.409L265.786 344.903L269.849 345.764L269.492 344.042L267.14 341.818ZM235.205 338.662L235.633 337.658L236.844 337.012L235.205 338.662ZM246.539 332.135L241.549 334L241.05 335.363L243.046 336.797L245.826 337.514L247.822 333.569L246.539 332.135ZM211.967 318.936V318.864H211.824L211.967 318.936ZM174.186 309.539V309.683H174.257L174.186 309.539ZM154.369 306.24L154.441 306.311L154.369 306.24ZM152.944 304.088H152.801V304.16L152.944 304.088ZM153.443 304.088H153.371H153.443ZM153.371 304.016V304.088V304.016ZM130.988 285.509L130.917 285.294V285.366L130.988 285.509V285.509ZM82.1589 269.8L81.9451 270.016L82.0876 270.087L82.159 269.8L82.1589 269.8ZM32.2604 233.648H32.1891H32.2604ZM1.46582 220.162L1.67967 220.091V219.947L1.46582 220.162V220.162Z" fill="#D6D6D6" fill-opacity="0.8" stroke="white" stroke-opacity="0.6" stroke-width="0.970631" stroke-linejoin="round"/>
<path d="M220.485 23.5289L214.1 22.2416L212.019 21.7409L211.087 21.5264L202.765 58.8599L203.124 61.9353L202.837 65.1537L202.98 65.8689V65.9405L203.052 67.2994L205.491 69.9456L201.976 78.7426L194.515 88.4694L194.3 90.2574L196.237 94.8347L189.422 123.014L189.135 124.516L191.143 124.945L211.446 128.95L219.552 130.452L221.633 130.809L223.641 131.167L233.972 132.812L252.48 135.601L254.561 135.887L254.848 133.527L255.493 128.878L257.932 110.283L259.224 101.057L259.511 98.6967L259.08 98.4822L256.856 94.4771L254.991 96.9087L247.459 96.122L241.504 96.1936L240.787 96.7657L237.989 91.0441L237.272 90.4719L233.254 80.6737L232.68 77.3837L225.578 76.8831L226.941 72.9495L227.946 72.6634L230.456 60.9341L228.304 61.0771L227.802 59.5752L222.493 50.7067L220.628 49.1332L219.265 45.4142L219.911 44.842L218.835 40.7654L217.472 38.1191L220.556 23.529H220.485V23.5289Z" fill="#D6D6D6" fill-opacity="0.8" stroke="white" stroke-opacity="0.6" stroke-width="0.970631" stroke-linejoin="round"/>
<path d="M133.891 41.6847L133.963 40.4554L133.818 40.5277L133.891 41.6847H133.891ZM149.306 35.1041L149.74 34.381L149.233 34.3087L149.306 35.1041H149.306ZM147.931 33.8025L148.365 32.3562L147.931 32.2116V33.8025ZM153.214 31.7054L153.141 30.2591L151.911 32.1393L153.214 31.7054H153.214ZM153.358 28.6682L153.575 27.2219L153.431 26.8603L153.358 28.6682H153.358ZM153.575 21.5814L153.503 20.786L153.214 20.7137L153.575 21.5814H153.575ZM155.891 16.8087L155.24 16.7364L153.937 18.7612L155.891 16.8087ZM154.082 14.8562L154.444 14.567L154.516 14.35L154.082 14.8562H154.082ZM153.72 15.0732L153.503 13.6269L152.852 14.8562L153.72 15.0732ZM153.358 13.0484L152.707 12.7591L153.214 13.4823L153.358 13.0484ZM155.529 14.2777V13.3376L155.312 13.6992L155.529 14.2777ZM156.181 13.3376L155.891 13.1207H155.819L156.181 13.3376H156.181ZM152.056 11.7467L151.694 11.4575L151.549 11.3852L152.056 11.7467V11.7467ZM154.733 11.4575L152.779 11.9637L153.286 12.1083L154.733 11.4575ZM153.141 11.3128L152.779 10.879L152.707 10.9513L153.141 11.3128H153.141ZM154.661 10.4451H154.372L154.733 10.5897L154.661 10.4451H154.661ZM140.476 47.5421L143.082 50.3624L142.648 55.7859L143.154 57.1599L147.062 59.257L158.062 60.2694L158.497 61.571L163.707 61.6434L168.628 62.2942L176.662 61.4264L180.642 62.0773L181.727 61.5711L202.063 66.1992L203.438 66.4884L203.294 65.7653L203.583 62.5111L203.221 59.4017L211.616 21.6538L210.458 21.4368L193.524 17.4596L178.76 13.6992L162.043 9.07113L157.049 7.8418L158.207 14.1331L157.122 16.1579L155.168 15.1455L157.049 23.8955L155.023 26.7881L154.082 29.4637V32.2116L149.812 35.1765L148.003 34.0194L146.266 34.8872L149.45 30.7653L148.654 33.5856L150.464 31.6331L151.911 31.9223L151.477 28.3066L152.418 28.4513L154.372 24.1124L153.72 23.4616L151.187 26.7157L149.523 26.7881L151.332 24.7633L153.358 24.2571L152.635 20.5691L150.608 20.0629L149.595 18.3273L148.365 18.9781L141.707 16.0856L135.845 11.5298L134.253 15.941L134.108 17.8211L135.338 21.1476L134.542 31.9223L133.963 33.5856L137.22 33.8748L133.963 36.1889L135.7 37.0566L134.325 41.6847L133.674 38.069L132.443 42.2632L134.108 44.288L135.917 44.1434L138.088 45.445L139.174 47.5422H140.476V47.5421Z" fill="#D6D6D6" fill-opacity="0.8" stroke="white" stroke-opacity="0.6" stroke-width="0.970631" stroke-linejoin="round"/>
<path d="M266.486 213.309L242.872 210.327L230.189 208.481L212.111 205.57L210.289 205.286V205.428L207.206 219.203L205.595 219.131L203.142 216.93L200.059 219.558L199.989 230.847L198.868 233.261V233.474V233.545L198.728 235.321L201.18 241.995L203.352 244.977L199.428 247.32L197.887 250.231L195.364 256.48L194.103 256.764L194.033 261.947L196.205 263.58L195.084 266.704L192.561 266.846L191.09 269.616L196.135 272.811L205.665 278.207L235.094 294.041L260.04 297.165H260.32L262.282 276.219L262.772 271.036L268.028 216.078L268.308 213.522L266.486 213.309H266.486Z" fill="#D6D6D6" fill-opacity="0.8" stroke="white" stroke-opacity="0.6" stroke-width="0.970631" stroke-linejoin="round"/>
<path d="M144.034 252.641L144.32 254.213V254.499L144.034 252.641ZM133.556 246.494L134.055 247.566L134.34 247.494L133.556 246.494V246.494ZM146.03 246.279L146.244 248.138L147.527 249.067L146.03 246.279ZM137.405 236.129L136.621 235.915L137.263 236.201L137.405 236.129V236.129ZM129.493 233.985L127.569 235.129L128.068 235.629L129.493 233.985ZM125.787 232.627L125.644 233.199L126.286 233.342L125.787 232.627ZM132.06 234.056L135.196 235.843L135.766 235.343L132.06 234.056ZM107.753 171.084L107.682 171.156L107.753 171.084ZM115.38 171.442L115.309 171.227V171.513L115.38 171.442V171.442ZM156.508 117.19L153.728 116.475L123.221 108.04L111.887 104.609V104.895L111.246 111.972L108.252 120.335L103.263 126.553L103.12 129.698L105.544 134.058L106.755 139.777L105.045 144.423L105.33 149.069L104.474 150.999L107.397 157.36L109.25 159.791L109.108 166.724L113.527 170.941L116.093 166.653L118.873 168.868L119.942 167.868L116.093 168.582L116.022 172.228L116.806 176.802L114.667 174.73L113.456 171.942L113.099 175.802L114.097 183.45L118.089 188.382L115.451 191.813L115.879 196.173L118.73 200.605L123.72 214.328L125.288 215.186L124.789 224.693L125.573 225.836L136.265 229.696L139.544 233.199L140.684 235.486L143.821 237.273L147.242 237.916L148.668 241.848L151.519 243.206L155.795 248.281L159.787 254.928L159.502 261.075L161.712 264.006L190.865 266.865L193.431 266.722L194.571 263.577L192.362 261.933L192.433 256.715L193.716 256.429L196.282 250.139L197.85 247.208L201.842 244.85L199.632 241.848L197.137 235.129L197.28 233.342V233.27L195.427 230.768L189.724 223.12L178.676 207.538L163.28 185.38L154.584 173.3L146.173 161.149L155.867 119.906L156.508 117.19L156.508 117.19Z" fill="#D6D6D6" fill-opacity="0.65" stroke="white" stroke-opacity="0.6" stroke-width="0.970631" stroke-linejoin="round"/>
<path d="M353.06 172.963L353.346 158.873L349.91 158.729L332.445 158.082L330.727 158.01L329.295 157.938L308.036 156.573L293.863 155.422L276.182 153.697L274.465 153.481L274.25 155.351L270.384 192.803L269.024 205.887L268.452 211.566L268.309 213.435L270.528 213.65L306.604 216.813L322.495 217.82L338.314 218.539L340.605 218.611L342.036 218.683L345.043 218.754L346.474 218.826L350.984 218.97H352.129V217.532L352.917 179.504L352.988 175.263V173.897L353.06 172.963L353.06 172.963Z" fill="#D6D6D6" fill-opacity="0.8" stroke="white" stroke-opacity="0.6" stroke-width="0.970631" stroke-linejoin="round"/>
<path d="M210.51 202.905L218.075 156.565L221.931 133.359L222.368 131.068L220.258 130.709L212.037 129.205L191.449 125.194L189.412 124.765L187.375 124.335L177.118 122.115L158.712 117.817L156.676 117.316L156.021 120.038L146.127 161.364L154.711 173.54L163.587 185.644L179.3 207.847L190.576 223.461L196.396 231.125L198.288 233.632V233.417L199.452 230.982L199.525 219.594L202.725 216.944L205.272 219.164L206.945 219.235L210.146 205.341V205.197L210.51 202.905L210.51 202.905Z" fill="#D6D6D6" fill-opacity="0.6" stroke="white" stroke-opacity="0.6" stroke-width="0.970631" stroke-linejoin="round"/>
<path d="M340.425 223.807L340.496 221.952L340.567 220.097L340.639 218.242L338.357 218.171L322.598 217.457L306.767 216.458L270.828 213.319L268.617 213.105L268.332 215.674L262.984 270.891L262.485 276.099L260.488 297.144L260.774 297.216L270.614 298.143L271.541 293.149L273.324 291.722L293.29 293.506H293.433L291.65 290.01L300.706 290.652L323.311 291.936L337.43 292.579L339.854 225.661L340.353 225.733L340.425 223.807L340.425 223.807Z" fill="#D6D6D6" fill-opacity="0.85" stroke="white" stroke-opacity="0.6" stroke-width="0.970631" stroke-linejoin="round"/>
<path d="M112.843 104.917L124.172 108.383L154.666 116.904L157.445 117.626L159.44 118.131L177.466 122.464L187.512 124.702L189.507 125.135L189.792 123.619L196.56 95.1691L194.637 90.5478L194.851 88.7426L202.26 78.9224L205.752 70.0409L203.329 67.3692L203.258 65.9973V65.925L201.904 65.6362L181.883 61.0149L180.814 61.5204L176.896 60.8705L168.987 61.737L164.142 61.0871L159.012 61.0149L158.585 59.7151L147.755 58.7042L143.908 56.6102L143.409 55.2383L143.836 49.8227L141.271 47.0066L141.058 47.0788L140.559 47.4399L136.997 45.5625L134.859 46.2123L133.434 45.4903L131.938 51.7001L130.94 53.4331L126.523 64.3364L125.24 70.3297L124.457 70.4019L120.324 80.3665L117.546 84.6268L116.548 85.3488L113.983 90.4034L113.484 95.7467L111.917 100.512L112.843 104.845V104.917L112.843 104.917ZM138.92 45.6347L138.707 44.9849L138.635 45.4903L138.92 45.6347H138.92Z" fill="#D6D6D6" fill-opacity="0.3" stroke="white" stroke-opacity="0.6" stroke-width="0.970631" stroke-linejoin="round"/>
<path d="M252.508 135.779L234.022 132.997L223.705 131.357L221.698 131L221.269 133.283L217.471 156.395L210.019 202.548L209.661 204.831L211.524 205.116L230.01 208.041L242.979 209.895L267.125 212.891L268.988 213.105L269.131 211.251L269.704 205.615L271.066 192.632L274.935 155.468L275.15 153.613L273.717 153.47L255.446 151.259L252.652 150.902L254.443 136.992L254.586 136.065L252.508 135.779Z" fill="#D6D6D6" fill-opacity="0.85" stroke="white" stroke-opacity="0.6" stroke-width="0.970631" stroke-linejoin="round"/>
<path d="M332.428 126.156L333.004 115.206L333.725 100.466L333.797 98.6408L332.86 98.5705L314.351 97.5177L303.979 96.6754L284.317 94.8504L259.686 91.9023L258.678 98.7811L258.606 99.2023L258.317 101.519L257.021 110.573L254.572 128.823L253.924 133.386L253.636 135.702L253.492 136.614L251.691 150.302L254.5 150.653L272.866 152.829L274.306 152.969L276.035 153.18L293.824 154.864L308.085 155.987L329.475 157.321L330.916 157.391L330.988 155.566L331.348 148.196L331.996 135.351L332.284 129.876L332.356 128.051L332.428 126.156H332.428Z" fill="#D6D6D6" fill-opacity="0.7" stroke="white" stroke-opacity="0.6" stroke-width="0.970631" stroke-linejoin="round"/>
<path d="M501.844 225.678L493.997 226.832L497.194 221.783L495.813 218.97L468.128 221.638L444.731 223.514L441.315 223.73L441.751 225.75L444.585 240.319L444.658 243.565L445.457 263.183L445.53 266.429L445.748 266.501L446.838 267.655L451.198 267.511L451.634 273.858L451.779 275.661L454.032 275.445L460.935 274.94L488.329 272.416H488.474L488.402 270.829L489.128 270.324L487.82 267.872L490.581 256.331L489.491 255.033L493.633 250.489L493.343 246.594L496.395 241.545V241.473L496.249 241.329L498.865 238.949L498.138 236.064L500.173 232.89L499.737 229.933L501.917 225.75V225.678H501.844V225.678Z" fill="#D6D6D6" fill-opacity="0.85" stroke="white" stroke-opacity="0.6" stroke-width="0.970631" stroke-linejoin="round"/>
<path d="M479.166 130.591L475.289 128.575L473.173 125.725L472.468 121.625L473.032 119.748L470.988 117.316L467.533 117.663L432.843 120.513L418.953 121.277L415.428 121.486L413.947 121.555L415.146 129.27L414.159 132.954L415.71 135.247V135.734L416.203 135.803L418.46 142.336L420.645 145.742L420.786 149.634L423.184 152.9L422.761 154.29L424.946 163.047V163.256L439.4 162.839L454.841 161.518L470.001 159.642L473.455 162.63L473.596 162.769L474.231 162.491L473.737 159.781L476.346 158.182L477.404 151.093L476.346 150.607L476.981 146.993L480.154 146.367L483.679 143.865L485.23 139.487L485.301 137.263L482.48 134.622L481.634 132.954L478.955 131.286L479.096 130.938L479.167 130.591L479.166 130.591Z" fill="#D6D6D6" fill-opacity="0.7" stroke="white" stroke-opacity="0.6" stroke-width="0.970631" stroke-linejoin="round"/>
<path d="M441.244 215.071L439.455 185.082L436.235 183.239L435.949 181.821L433.373 179.553L435.877 176.504L434.875 174.732L433.015 174.803L431.297 173.597L430.582 173.03L428.149 173.172L401.744 174.165L389.65 174.448H365.607L355.946 174.306L353.227 174.235V175.582L353.155 179.765L352.368 217.269V218.687L355.445 218.757L372.047 218.97L410.903 218.403L438.596 217.127L441.316 216.914L441.244 215.071L441.244 215.071Z" fill="#D6D6D6" fill-opacity="0.7" stroke="white" stroke-opacity="0.6" stroke-width="0.970631" stroke-linejoin="round"/>
<path d="M474.019 163.405L470.511 160.323L455.121 162.258L439.444 163.62L424.77 164.05L424.698 164.48L426.488 167.921L428.134 169.067L430.067 172.508L430.353 172.794L431.069 173.368L432.787 174.586L434.648 174.514L435.65 176.306L433.145 179.388L435.722 181.682L436.008 183.115L439.229 184.978L441.019 215.296L441.091 217.159L441.234 219.023L441.305 220.886L441.449 222.821L441.52 224.685L444.885 224.47L467.934 222.606L495.207 219.955L496.567 222.75L493.418 227.767L501.148 226.62H501.22V226.047L501.363 222.75L502.795 220.958L502.365 218.951L502.294 218.879L502.222 218.808L502.509 217.876L502.938 218.019L503.153 218.593L503.081 218.808V218.879V219.453L503.367 219.525L503.94 218.808V218.736L504.012 218.521L505.873 217.374L506.159 217.231L506.804 211.354L506.66 211.067L506.446 210.995L501.363 206.838L502.151 205.333L500.719 201.248L498.142 199.241L493.274 197.091L490.196 194.583L490.554 189.422L491.485 184.62L486.331 184.907L484.756 183.258L484.04 179.961L475.88 173.081L473.589 166.702L474.162 163.548L474.019 163.405V163.405Z" fill="#D6D6D6" fill-opacity="0.7" stroke="white" stroke-opacity="0.6" stroke-width="0.970631" stroke-linejoin="round"/>
<path d="M414.234 136.189L412.013 134.018L404.206 131.777L401.7 131.707L397.904 132.757L393.391 129.956L379.281 130.096L358.726 129.886L334.445 129.115L332.297 129.045L332.225 130.866L331.939 136.329L331.294 149.145L330.936 156.499L330.864 158.32L332.583 158.39L350.059 159.02L353.497 159.16L353.211 172.887L353.139 173.798L355.861 173.868L365.53 174.008H389.595L401.699 173.728L428.128 172.747L430.563 172.607L430.277 172.327L428.343 168.965L426.696 167.845L424.905 164.483L424.977 164.063V163.853L422.757 155.028L423.186 153.628L420.751 150.336L420.608 146.414L418.388 142.982L416.096 136.399L415.594 136.329L414.233 136.189L414.234 136.189Z" fill="#D6D6D6" fill-opacity="0.7" stroke="white" stroke-opacity="0.6" stroke-width="0.970631" stroke-linejoin="round"/>
<path d="M441.972 222.609L441.828 220.697L441.756 218.856L441.613 217.015L438.888 217.227L411.134 218.502L372.193 219.068L355.555 218.856L352.472 218.785H351.324L346.806 218.643L345.372 218.572L342.36 218.502L340.926 218.431L340.854 220.272L340.782 222.113L340.71 223.954L340.639 225.866H341.069L358.424 226.291L376.783 226.503L376.998 250.72L378.289 254.968L381.157 257.659L384.241 257.801L384.887 256.526L389.118 260.35L394.64 260.916L395.644 262.049L397.652 261.129L402.672 263.465V264.811L404.536 264.74L406.473 263.111L410.058 265.377L413.429 266.581L415.724 263.465L423.039 266.864L425.764 264.669L427.987 263.819L429.78 264.244L436.521 262.332L440.107 263.819L443.334 265.873L446.131 266.369H446.203L446.131 263.182L445.342 243.922L445.27 240.736L442.473 226.432L442.043 224.45L441.971 222.608L441.972 222.609Z" fill="#D6D6D6" fill-opacity="0.58" stroke="white" stroke-opacity="0.6" stroke-width="0.970631" stroke-linejoin="round"/>
<path d="M410.481 85.4836L398.266 85.8366L368.849 86.0484L336.974 85.2012L334.155 85.0601L334.083 86.6837L333.793 93.1077L333.577 97.9786L333.504 98.9669H333.287L333.215 100.802L332.492 115.627L331.914 126.639L331.842 128.545L334.01 128.616L358.513 129.393L379.257 129.604L393.496 129.463L398.049 132.287L401.88 131.228L404.41 131.299L412.288 133.558L414.529 135.746L415.902 135.887V135.393L414.312 133.063L415.324 129.322L414.095 121.486L415.613 121.416L415.468 118.168L411.854 93.3195L409.975 90.2134L412.866 85.5542L412.939 85.3425L410.481 85.4836L410.481 85.4836Z" fill="#D6D6D6" fill-opacity="0.7" stroke="white" stroke-opacity="0.6" stroke-width="0.970631" stroke-linejoin="round"/>
<path d="M499.699 329.763L498.781 329.975L498.357 330.399L499.699 329.763ZM502.668 329.763L502.173 329.551L502.031 329.763H502.668ZM504.364 329.197H503.869L503.586 329.551L504.364 329.197ZM503.516 328.702L503.374 328.49L503.304 328.702H503.516ZM509.169 324.957L508.957 325.098H509.311L509.169 324.957ZM519.063 320.787L519.487 320.222L518.992 320.858L519.063 320.787V320.787ZM520.476 318.95L520.335 319.02V319.091L520.476 318.95V318.95ZM484.152 325.169L485.212 323.826L482.314 323.049L481.042 324.109L484.152 325.169ZM513.48 319.02L513.197 318.738L513.127 318.879L513.48 319.02ZM514.257 317.748L513.551 317.536L513.763 318.243L514.257 317.748ZM520.052 316.547V316.335V316.405V316.547V316.547ZM521.466 315.628L521.395 315.557L521.466 315.699V315.628V315.628ZM520.901 315.487L520.759 315.416L520.688 315.628L520.9 315.487L520.901 315.487ZM515.954 315.275L516.59 315.063V314.851L515.954 315.275ZM516.307 314.921L516.66 314.568L516.59 314.497L516.307 314.921L516.307 314.921ZM513.833 312.306L513.692 312.448H513.763L513.834 312.306H513.833ZM487.756 272.729H487.615L460.972 275.203L454.258 275.698L452.067 275.91L452.138 277.606L453.552 291.246L455.884 294.497L455.954 296.405L458.216 300.363L460.053 306.158L459.417 309.409L458.923 317.466L457.862 320.08H458.004L458.216 321.918L457.014 323.614L465.778 322.625L472.633 324.533L477.509 325.169L479.982 323.402L478.64 321.635L483.162 320.222L483.021 321.777L485.353 321.211L487.261 324.179L488.887 323.614L493.127 326.512L490.512 327.43L496.519 329.197H498.781L500.123 327.572L503.021 326.017L505.07 328.985L506.484 326.3L506.06 322.059L509.876 323.543L510.3 324.815L514.823 325.381L517.084 327.218L516.802 328.702L519.982 325.734L518.78 324.179L513.48 322.837L511.501 321.706L511.431 319.586L513.622 319.868L515.318 316.405L513.127 313.366L511.925 316.264L509.169 315.769L511.077 312.66L509.805 312.306L506.696 314.497L502.244 314.78L500.971 313.791L503.021 310.186L505.424 310.115L509.523 311.458L512.491 311.741L510.865 309.691L507.756 303.614L508.604 300.221L484.223 302.907L485.141 301.988L484.152 299.444L485.636 297.253L486.484 291.741L491.855 282.553L489.24 279.373L489.381 277.041L487.756 273.224V272.729H487.756Z" fill="#D6D6D6" fill-opacity="0.3" stroke="white" stroke-opacity="0.6" stroke-width="0.970631" stroke-linejoin="round"/>
<path d="M415.321 379.969L411.893 367.051V369.478L415.321 379.969ZM414.536 357.274L412.108 361.841L411.822 363.34L414.536 357.274ZM416.464 353.919L418.75 350.922L417.107 351.921L416.464 353.919ZM424.534 346.64L419.178 349.423L420.678 349.137L424.534 346.64ZM425.249 345.64L426.748 344.427L426.177 344.57L425.249 345.64ZM340.546 225.883L340.046 225.812L337.618 292.756L323.477 292.114L300.837 290.829L291.767 290.187L293.552 293.684L293.624 293.755L301.337 301.463L305.765 306.673L311.621 311.026L315.763 318.592L317.335 326.514L320.691 328.726L323.334 331.652L327.119 333.008L332.618 336.505L335.118 337.433L338.546 334.007L339.617 330.367L341.403 326.87L346.973 324.658L349.116 325.728L355.33 326.228L360.972 329.725L364.828 330.439L363.757 332.437L365.971 333.865L368.042 336.362L368.471 339.003L369.828 340.787L372.97 348.352L376.112 350.993L378.541 354.99L381.612 358.13L382.969 358.558L384.111 366.694L387.468 368.55L387.611 371.119L388.468 370.905L394.324 378.042L397.252 378.684L400.966 380.897H406.68L410.822 383.18L415.75 382.11L413.536 380.04L411.536 374.045L410.751 368.835L409.608 367.122L410.108 363.625L408.608 363.483L406.608 360.2L408.894 362.626L411.536 361.698L412.965 357.916L410.108 354.062L414.393 354.561L416.393 351.493L416.107 350.422L417.893 348.067L417.464 350.137L419.464 348.567L418.678 345.783L421.249 347.139L424.534 345.284L421.321 341.929L423.32 342.714L427.034 342.928L431.891 341.858L437.318 338.218L440.604 335.506L441.104 333.508L443.103 331.438L442.032 328.012L442.246 325.871L445.817 324.301L445.532 328.084H447.674L445.317 330.082L454.816 325.086L456.387 325.015L457.387 320.447H457.673L458.744 317.807L459.244 309.67L459.887 306.387L458.03 300.535L455.745 296.539L455.673 294.612L453.316 291.329L451.888 277.554L451.816 275.842L451.674 274.057L451.245 267.777L446.96 267.92L445.889 266.778L445.674 266.706H445.603L442.818 266.207L439.604 264.137L436.033 262.638L429.319 264.565L427.534 264.137L425.32 264.994L422.606 267.206L415.321 263.78L413.036 266.92L409.679 265.707L406.108 263.423L404.18 265.065L402.323 265.136V263.78L397.324 261.425L395.324 262.353L394.324 261.211L388.825 260.64L384.611 256.786L383.968 258.071L380.897 257.928L378.041 255.216L376.755 250.934L376.541 226.526L358.258 226.312L340.974 225.883H340.546L340.546 225.883Z" fill="#D6D6D6" fill-opacity="0.7" stroke="white" stroke-opacity="0.6" stroke-width="0.970631" stroke-linejoin="round"/>
<path d="M681.78 89.9473L672.005 93.8896L671.869 93.5312L666.371 95.2515L665.149 95.6099L665.285 96.3267L667.865 106.864L668.679 107.939L666.914 110.232L668.136 111.451L672.073 107.437L674.177 104.355L674.584 105.215L684.495 100.556L684.698 100.341L684.63 98.6205L684.223 97.1152L682.119 90.8791L681.847 90.0906L681.779 89.9473H681.78Z" fill="#D6D6D6" fill-opacity="0.6" stroke="white" stroke-opacity="0.6" stroke-width="0.970631" stroke-linejoin="round"/>
<path d="M673.112 40.0977L672.187 41.2452L671.121 41.0301L670.552 45.7638V45.8356L672.258 52.2907L672.116 53.5817L669.06 57.67L669.842 61.3996V66.0616L669.273 70.365L672.472 82.1277L675.386 81.1953L684.343 78.1829L688.395 73.7361V72.5885L688.608 70.7237L688.111 70.9388L688.04 70.5085L683.561 64.9858L683.419 64.4837L673.111 40.0977H673.112Z" fill="#D6D6D6" fill-opacity="0.6" stroke="white" stroke-opacity="0.6" stroke-width="0.970631" stroke-linejoin="round"/>
<path d="M689.873 96.8133L689.799 95.3295L689.579 95.8948L689.873 96.8133H689.873ZM691.343 95.6828L690.387 93.9163L690.314 95.7534L691.343 95.6828V95.6828ZM690.902 93.4924L691.416 94.7642L692.078 95.8948L692.519 95.0469L691.857 93.8457L691.637 92.9978H690.902V93.4924ZM682.744 90.5954L683.038 91.3726L685.316 97.5199L685.757 99.0037L685.831 100.7L685.978 100.488L689.505 97.8025L688.844 92.9978L690.314 92.7151L687.08 88.9702L683.7 90.2421L682.744 90.5954H682.744Z" fill="#D6D6D6" fill-opacity="0.6" stroke="white" stroke-opacity="0.6" stroke-width="0.970631" stroke-linejoin="round"/>
<path d="M671.992 83.2382L668.85 71.1567L669.409 66.7367V61.9483L668.641 58.1176L671.643 53.9185L671.783 52.5925L670.107 45.9624L669.2 46.3307L665.36 47.8041L661.589 49.3511L652.932 52.6662L652.443 52.8135L655.585 60.5486L656.632 67.8417L660.333 73.9561L663.824 86.0376L663.963 85.9639L664.522 85.7429L666.128 85.2272L667.524 84.7115L671.504 83.4592L671.992 83.2382V83.2382Z" fill="#D6D6D6" fill-opacity="0.6" stroke="white" stroke-opacity="0.6" stroke-width="0.970631" stroke-linejoin="round"/>
<path d="M521.537 239.288L521.824 239.855L522.826 240.493L523.256 269.561L523.399 285.513L527.05 307.35L527.336 307.279L530.558 307.917L531.417 301.607L532.849 305.152L535.283 307.35L539.936 304.656L539.435 304.23L539.579 304.301L536.357 296.999L567.284 292.036L569.361 291.682V291.611L567.428 287.995L567.284 282.819L565.709 279.983L566.497 274.453L567.786 273.035L562.488 263.677L552.895 234.751L552.823 234.609L550.675 234.963L539.221 236.807L533.493 237.516L521.466 239.146L521.537 239.288V239.288Z" fill="#D6D6D6" fill-opacity="0.6" stroke="white" stroke-opacity="0.6" stroke-width="0.970631" stroke-linejoin="round"/>
<path d="M622.015 378.203H621.871L621.943 378.275L622.015 378.203H622.015ZM621.37 378.132V378.203H621.441L621.37 378.132ZM621.513 378.061V377.99V378.061ZM611.763 379.128V379.2V379.128ZM611.62 379.2V379.128V379.2ZM610.974 379.2H610.903V379.271L610.974 379.2ZM631.335 374.717H631.263L631.335 374.859V374.717ZM633.271 374.219V374.076L633.127 374.29L633.271 374.219V374.219ZM632.554 374.076L632.267 373.792L632.195 373.863L632.554 374.076L632.554 374.076ZM632.339 374.646L631.478 373.578L631.98 374.503L632.339 374.646ZM639.149 370.448V370.732L639.293 370.59L639.149 370.448ZM640.153 369.736L640.368 369.38L640.081 369.665L640.153 369.736V369.736ZM640.368 369.024H640.296V369.096L640.368 369.024ZM639.078 368.811L639.006 368.74L639.078 368.811ZM639.723 367.744L639.651 367.672V367.815L639.723 367.744V367.744ZM637.787 367.672L637.715 367.601L637.787 367.672ZM640.225 366.036L640.081 366.107L640.296 366.178L640.225 366.036V366.036ZM640.511 366.036L640.368 365.894L640.44 366.107L640.511 366.036L640.511 366.036ZM640.01 365.894L639.938 365.822V365.965L640.01 365.894V365.894ZM642.662 365.395V365.324L642.519 365.609L642.662 365.395V365.395ZM639.651 365.68H639.508L639.651 365.751V365.68ZM641.157 364.826H640.942L640.87 364.897L641.157 364.826H641.157ZM641.73 364.47H641.658H641.73ZM635.708 364.755V364.613L635.636 364.755H635.708ZM636.353 364.542H636.138L636.353 364.969V364.542ZM634.633 364.613V364.186L634.274 364.257L634.633 364.613ZM633.629 363.901L633.987 364.257V364.115L633.629 363.901ZM644.168 364.328L642.877 364.897L643.307 364.969L644.168 364.328V364.328ZM634.131 363.688H633.701V363.83L634.131 363.688ZM645.458 360.13L645.53 359.774L645.602 358.849L645.458 360.13H645.458ZM645.53 356.145L645.243 355.434L645.1 355.718L645.53 356.145ZM628.969 357.924L628.826 358.138L629.184 358.209L628.969 357.924V357.924ZM627.607 357.284L626.962 357.497L627.464 357.568L627.607 357.284V357.284ZM626.173 357.426V357.213L626.101 357.284L626.173 357.426V357.426ZM624.668 357.355L624.237 357.64L624.811 357.924L624.668 357.355ZM626.675 357.426L626.603 357.213L626.245 357.141L626.675 357.426V357.426ZM617.283 350.453L616.853 350.666L617.713 350.951L617.283 350.453ZM615.563 348.176L614.989 347.322L615.204 347.963L615.563 348.176ZM617.785 349.599L616.781 347.322L616.064 347.109L617.785 349.599ZM614.917 346.753L614.702 346.184L614.559 345.828L614.917 346.753ZM608.967 338.855L607.677 337.93L608.178 338.428L608.967 338.855ZM641.228 334.087L635.995 325.406H635.708L641.228 334.087ZM605.024 320.212L604.809 320.141L605.024 320.283V320.212V320.212ZM604.594 319.714L604.522 319.785L604.594 319.856V319.714V319.714ZM604.092 319.003V318.931L604.02 319.003H604.092ZM604.379 318.718L604.594 318.86V318.718H604.379ZM604.809 318.433L604.522 318.504H604.594L604.809 318.433H604.809ZM604.307 318.362L604.092 318.149L604.164 318.22L604.307 318.362V318.362ZM603.805 317.579H603.662L603.877 317.651L603.805 317.579H603.805ZM604.307 316.726H604.02L603.948 316.797L604.307 316.726H604.307ZM604.594 316.868L604.235 316.512L604.379 316.583L604.594 316.868V316.868ZM601.869 313.808L601.726 313.737V313.808H601.869ZM598.787 313.808L598.572 313.524L598.643 313.879L598.787 313.808V313.808ZM572.691 311.46L574.842 309.824L572.476 311.389L572.691 311.46V311.46ZM576.992 308.045L577.207 307.831L576.347 308.187L576.992 308.045ZM549.749 303.277L541.935 305.768L546.237 304.558L549.749 303.277ZM569.178 291.181L567.099 291.537L536.128 296.518L539.354 303.847L539.569 303.918L538.781 306.835L541.075 305.839L543.584 303.633L547.885 303.491L552.832 301.712L556.202 302.21L555.413 303.42L561.579 305.483L566.884 308.045L568.103 310.891L572.046 310.037L581.366 302.495L584.807 302.637L598.858 313.168L601.726 312.599L604.737 316.583L605.311 322.916L604.379 326.901L604.809 328.893L607.318 333.874L606.171 329.96L609.397 329.889L609.684 332.735L607.963 337.147L613.914 345.259L616.136 345.33L614.272 342.839L616.566 343.124L617.928 342.27L617.355 346.824L620.438 349.243L622.517 354.793L625.313 356.501L628.897 357.426L633.844 363.688L636.425 365.04L632.984 365.253L634.561 367.032L640.225 365.182L643.021 363.617L645.602 354.651L644.311 340.705L644.024 339.282L637.142 327.897L631.263 319.643L627.965 312.883L630.761 315.231L631.335 314.804L632.554 320.71L635.708 325.193L632.625 319.216L632.769 316.37L623.52 305.198L621.298 301.712L618.359 295.806L616.351 290.825L614.774 289.046L614.416 286.769L614.344 286.698L609.397 286.414L607.461 287.908L606.386 293.387L605.382 290.825L571.544 295.023L569.106 291.252L569.178 291.181V291.181Z" fill="#D6D6D6" fill-opacity="0.6" stroke="white" stroke-opacity="0.6" stroke-width="0.970631" stroke-linejoin="round"/>
<path d="M615.445 277.195L615.373 275.044L614.873 276.908L615.445 277.195H615.445ZM616.231 273.898L615.945 272.249L615.731 273.253L616.231 273.898ZM582.772 228.744L581.842 228.959L579.126 229.533L569.116 231.611L568.187 231.826L567.186 231.969L561.609 233.044L560.108 233.331L554.031 234.478L552.744 234.621L552.816 234.765L562.396 264.007L567.686 273.468L566.4 274.901L565.613 280.491L567.186 283.358L567.329 288.59L569.259 292.246V292.317L569.188 292.389L571.619 296.188L605.364 291.959L606.365 294.539L607.437 289.021L609.368 287.515L614.301 287.802L613.872 280.061L614.801 278.413L614.301 275.331L615.302 272.393L616.803 270.744L615.731 269.741L618.233 266.659H618.161L613.872 262.645L608.009 254.259L604.792 252.754L590.994 241.143L587.633 236.843L581.127 234.12L580.77 232.686L582.772 228.744V228.744Z" fill="#D6D6D6" fill-opacity="0.6" stroke="white" stroke-opacity="0.6" stroke-width="0.970631" stroke-linejoin="round"/>
<path d="M520.652 310.542L520.293 310.614V310.685L520.652 310.543V310.542ZM527.33 309.686H526.325L527.258 309.757L527.33 309.686H527.33ZM519.001 310.4L518.714 310.685L518.786 310.757L519.001 310.4L519.001 310.4ZM525.75 309.829H523.022L525.607 309.9L525.75 309.829ZM495.81 241.803V241.874L492.794 246.871L493.082 250.725L488.989 255.222L490.066 256.507L487.338 267.928L488.63 270.355L487.912 270.855L487.984 272.425V272.925L489.635 276.779L489.492 279.135L492.148 282.347L486.692 291.627L485.83 297.194L484.322 299.407L485.327 301.977L484.394 302.905L509.165 300.192L508.303 303.619L511.462 309.757L513.114 311.827V311.756L515.77 308.758L521.37 307.544L526.54 308.115L527.33 307.116V307.045L523.668 285.059L523.524 268.999L523.094 239.733L522.088 239.09L521.801 238.519H521.658L518.068 239.019L511.749 239.875L497.39 241.66L495.81 241.803L495.81 241.803Z" fill="#D6D6D6" fill-opacity="0.6" stroke="white" stroke-opacity="0.6" stroke-width="0.970631" stroke-linejoin="round"/>
<path d="M583.082 227.556L581.09 231.541L581.446 232.99L587.92 235.744L591.264 240.091L604.996 251.83L608.198 253.351L614.032 261.829L618.302 265.887L619.013 262.554L617.875 259.366L620.934 261.684L622.642 260.308L619.725 257.844L623.282 257.627L628.832 252.844L628.191 251.612L631.607 248.931L631.251 247.627L633.741 246.033L633.883 242.337L637.797 234.947L640.429 231.541L640.714 231.396L624.847 221.179L618.942 222.338L610.902 222.049L606.917 219.947L583.296 227.556H583.082Z" fill="#D6D6D6" fill-opacity="0.6" stroke="white" stroke-opacity="0.6" stroke-width="0.970631" stroke-linejoin="round"/>
<path d="M479.672 130.021L479.531 130.383L482.227 132.12L483.078 133.857L485.917 136.607L485.846 138.923L484.285 143.482L480.737 146.088L477.544 146.739L476.905 150.502L477.97 151.009L476.905 158.391L474.28 160.055L474.777 162.878L474.138 163.167L473.57 166.352L475.841 172.793L483.93 179.741L484.639 183.07L486.2 184.734L491.309 184.445L490.387 189.294L490.032 194.505L493.083 197.038L497.908 199.209L500.462 201.235L501.881 205.361L501.101 206.88L506.139 211.078L506.352 211.15L505.926 210.716L507.345 207.315L512.808 208.834L514.157 207.242L513.092 204.058L517.562 201.38L516.356 199.643L517.421 197.183V196.965L517.137 196.893L517.208 190.452L518.769 189.294L521.465 182.853L520.897 180.03L519.124 176.629L520.117 172.793L515.15 137.113L514.44 136.317L512.596 132.047L511.106 130.455L510.467 126.258V126.113L500.888 127.488L495.141 128.212L479.672 130.021Z" fill="#D6D6D6" fill-opacity="0.6" stroke="white" stroke-opacity="0.6" stroke-width="0.970631" stroke-linejoin="round"/>
<path d="M545.201 131.977L534.314 133.933L531.824 134.44L523.001 135.889L521.151 137.41L518.376 138.714L517.308 138.642L516.028 137.99L515.601 137.555L520.581 173.27L519.585 177.109L521.364 180.514L521.933 183.339L519.23 189.787L517.664 190.946L517.593 197.393L517.878 197.466L518.162 197.393L519.229 195.365H521.862L525.064 194.278L529.049 195.8L529.476 194.133L531.753 192.395L535.168 192.902L537.018 189.207L542.07 189.642L541.999 187.541L546.482 181.528L545.77 178.775L548.901 178.703L552.743 175.588L551.818 172.038L551.961 171.893L551.818 170.662L547.549 145.017L545.628 134.078L545.414 132.919L545.201 131.977L545.201 131.977Z" fill="#D6D6D6" fill-opacity="0.6" stroke="white" stroke-opacity="0.6" stroke-width="0.970631" stroke-linejoin="round"/>
<path d="M502.846 217.707L502.632 217.137L502.203 216.995L501.917 217.921L501.989 217.992L502.775 217.921L502.846 217.707H502.846ZM551.739 171.095L551.596 171.238L552.526 174.73L548.666 177.795L545.52 177.866L546.235 180.575L541.732 186.49L541.803 188.557L536.728 188.129L534.87 191.764L531.439 191.265L529.151 192.976L528.722 194.615L524.719 193.118L521.503 194.188H518.858L517.786 196.183L517.5 196.254V196.468L516.428 198.892L517.643 200.602L513.14 203.239L514.212 206.375L512.854 207.943L507.35 206.446L505.92 209.796L506.349 210.224L506.492 210.509L505.848 216.353L505.563 216.496L503.704 217.636L503.633 217.85L505.705 217.565L520.145 215.64L519.43 212.79L521.86 212.718L550.953 208.87L571.397 205.449L571.683 205.235L572.183 204.665L577.544 201.814L581.69 196.397L582.262 194.544L584.978 192.406L588.409 188.058L588.909 187.345L588.695 187.274H586.908L584.621 185.991L580.546 181.074L579.117 176.084V175.942L578.974 175.799L575.971 174.089L574.613 171.808L571.897 174.445L570.181 174.873L568.037 174.018L566.178 175.443L562.318 173.733L561.318 174.16L557.672 171.024L555.814 170.098L552.311 170.525L551.739 171.095Z" fill="#D6D6D6" fill-opacity="0.6" stroke="white" stroke-opacity="0.6" stroke-width="0.970631" stroke-linejoin="round"/>
<path d="M647.529 229.226L646.741 229.996L646.884 230.136L647.529 229.226ZM648.101 225.164L647.743 225.724L647.887 226.285L648.101 225.164ZM652.398 218.652L651.324 219.352L650.751 220.192L652.398 218.652ZM661.634 214.24L661.205 213.96L660.274 213.89L661.634 214.24V214.24ZM659.701 213.82H659.057L657.983 214.38L659.701 213.82ZM661.921 214.59L663.997 209.548L662.565 211.649L661.921 214.59ZM665 207.938L665.931 206.607H665.429L665 207.938ZM671.014 202.476L669.439 194.703L670.799 198.764L671.014 202.476ZM662.279 184.759L662.136 184.829L661.921 184.899H661.992L665.931 191.412L669.009 194.423L662.279 184.759L662.279 184.759ZM660.99 185.179L660.417 185.319L660.56 185.39H661.778L661.634 184.969L661.42 185.039H661.205V185.179L661.061 185.25L660.99 185.179V185.179ZM594.757 201.145L594.399 202.196L594.471 205.207L593.683 205.137L591.822 208.848L589.745 209.058L585.879 212.77L584.16 212.139L581.941 215.361L576.069 220.542L573.205 221.243L570.198 223.974L570.055 225.794L567.405 227.195L567.477 230.276V230.976L568.408 230.766L578.432 228.735L581.153 228.175L582.084 227.965H582.299L606.071 220.612L610.08 222.643L618.172 222.923L624.115 221.803L640.082 231.677L640.368 231.467L647.743 228.525L647.815 224.674L650.464 219.982L653.329 217.321L659.272 213.47L660.059 212.069L661.634 212.77L662.35 208.148L661.491 209.758L658.484 210.739L655.62 210.809L659.128 208.288L658.054 207.168L659.272 204.647L652.541 203.596L652.254 203.246L657.983 202.196L659.844 203.106L662.207 202.896L664.14 201.495L665.573 198.764L666.861 198.414L666.647 194.563L665 193.022L663.353 194.493L663.711 198.204L662.494 193.653L661.563 193.442L654.474 196.314L657.625 193.302L657.768 192.112L661.062 191.342L661.992 188.961L664.212 190.221L661.849 186.79L660.202 185.39L631.561 193.372L613.303 197.924L594.829 201.285L594.757 201.145H594.757Z" fill="#D6D6D6" fill-opacity="0.6" stroke="white" stroke-opacity="0.6" stroke-width="0.970631" stroke-linejoin="round"/>
<path d="M595.395 137.066L593.618 129.469L593.262 127.922L591.271 119.271L588.711 120.888L583.235 125.038L579.68 129.329L576.906 129.751L571.786 132.635L568.942 130.946L560.337 129.962L555.786 131.087L551.306 132.142L546.612 133.127L545.901 133.338L546.115 134.463L548.035 145.084L552.301 169.984L552.444 171.179L553.013 170.617L556.497 170.195L558.346 171.109L561.973 174.204L562.968 173.782L566.808 175.47L568.657 174.063L570.791 174.907L572.497 174.485L575.2 171.883L576.551 174.133L579.537 175.822L579.68 175.962L582.737 174.485L583.804 172.164L582.951 169.773L585.369 166.115L587.146 165.834L586.933 162.739L589.849 158.8L590.346 159.363L592.978 157.393L595.253 154.017L595.609 138.613L595.751 138.543L595.395 137.066V137.066Z" fill="#D6D6D6" fill-opacity="0.4" stroke="white" stroke-opacity="0.6" stroke-width="0.970631" stroke-linejoin="round"/>
<path d="M571.933 205.789L551.536 209.285L522.511 213.219L520.086 213.291L520.799 216.205L506.394 218.172L504.325 218.463V218.536L503.755 219.265L503.47 219.192V218.609V218.536L502.685 218.609L502.756 218.682L503.184 220.721L501.758 222.542L501.615 225.893V226.476V226.549L499.476 230.774L499.904 233.76L497.907 236.965L498.62 239.879L496.053 242.283L496.195 242.429L497.764 242.283L512.027 240.462L518.303 239.588L521.869 239.078H522.012L521.94 238.932L533.921 237.257L539.627 236.528L551.037 234.634L553.177 234.27L554.46 234.124L560.522 232.959L562.02 232.668L567.582 231.575L568.581 231.429V230.701L568.509 227.496L571.148 226.039L571.291 224.145L574.286 221.304L577.139 220.576L582.986 215.185L585.197 211.835L586.909 212.49L590.76 208.63L592.828 208.411L594.682 204.55L595.467 204.623L595.395 201.491L595.752 200.398L594.611 200.617L590.546 201.782L585.696 202.802L573.501 205.352L572.218 205.57L571.933 205.789L571.933 205.789Z" fill="#D6D6D6" fill-opacity="0.4" stroke="white" stroke-opacity="0.6" stroke-width="0.970631" stroke-linejoin="round"/>
<path d="M661.195 183.95H661.409L661.623 183.879L661.48 183.524L661.195 183.95V183.95ZM658.765 176.011V176.365L659.123 176.153L658.765 176.011ZM660.052 173.53L659.98 172.963L660.052 173.53ZM659.623 174.38L659.48 175.302L659.266 175.656L659.623 174.38ZM660.266 172.538L660.337 172.112L660.194 172.538H660.266H660.266ZM660.695 170.624L660.909 170.128L660.552 171.403L660.695 170.624ZM660.766 169.56L661.052 168.001L660.695 168.355L660.766 169.56ZM662.052 162.543L662.195 161.905L662.123 162.047L662.052 162.543H662.052ZM661.766 160.913L660.837 161.267L659.408 161.905L658.908 162.543L659.123 162.614L657.408 173.175L658.051 174.877L659.051 170.482L660.909 164.74L661.766 160.984V160.913ZM663.195 160.346L662.981 160.417L662.909 160.7L662.552 162.897L662.838 162.118L663.195 160.346V160.346ZM588.534 187.494L588.034 188.203L584.604 192.527L581.889 194.653L581.318 196.496L577.174 201.883L571.816 204.718L571.315 205.286L572.601 205.073L584.819 202.592L589.677 201.6L593.749 200.465L594.893 200.253L594.964 200.395L613.397 196.992L631.616 192.385L660.194 184.304L659.98 183.95L659.909 183.737L660.409 184.233L660.98 184.091L660.909 184.021L660.409 181.611L660.766 181.681L661.909 183.808L662.123 183.737L662.266 183.666L661.981 183.099L659.051 178.633L655.407 179.271L653.764 180.618L652.192 179.201L646.834 177.428L643.119 177.287L650.335 176.649L654.336 179.342L655.479 177.57L652.264 173.53L654.55 173.672L653.336 170.411L650.478 170.553L643.69 165.095H642.833L652.407 169.773L651.764 166.512L652.407 165.449L647.548 163.606L643.333 163.323L641.261 161.48L639.546 162.543L638.903 157.652L639.618 157.794L639.475 153.824L639.332 153.683L639.189 153.753L639.046 153.683L638.689 153.399L638.475 153.186L636.188 152.194L633.831 150.493L630.544 149.642L630.33 149.571V149.642L629.901 152.619L623.257 149.784L623.4 153.895L619.756 160.771L617.541 163.181L616.112 167.363L611.754 165.874L609.611 175.515L607.896 178.775L607.61 183.028L606.324 185.084L601.537 186.501L597.608 189.549L595.75 189.833L593.964 191.392L589.463 189.762L588.677 187.565L588.534 187.494L588.534 187.494Z" fill="#D6D6D6" fill-opacity="0.4" stroke="white" stroke-opacity="0.6" stroke-width="0.970631" stroke-linejoin="round"/>
<path d="M511.691 84.2649L509.924 86.4835L508.863 89.7042L509.358 91.4934L511.691 84.2649ZM471.102 67.4459L472.162 65.9429L471.385 66.6586L471.102 67.4459ZM472.728 65.0841L472.375 64.6546L471.597 65.1556L472.728 65.084V65.0841ZM457.313 69.092L455.686 70.9528L456.464 79.5412L451.938 83.6923L451.09 87.7002L453.565 89.9905L452.858 99.8671L455.474 101.871L457.171 102.014L462.545 105.306L465.94 108.885L470.253 111.104L471.243 116.615V116.972L473.294 119.477L472.728 121.41L473.435 125.632L475.557 128.567L479.446 130.642L479.375 131L494.791 129.211L500.519 128.495L510.065 127.135L509.782 126.062V122.698L507.873 119.12L507.378 114.611L508.297 109.601L507.802 105.736L509.499 100.941L508.863 100.153L509.004 95.7161L509.923 92.3523L508.863 91.2072L506.812 91.9229L505.681 94.9288L502.994 96.5033L503.842 92.7101L506.246 89.4895L506.388 88.0581L506.459 87.9865L503.064 84.5511V79.6843L499.246 76.5352L494.013 76.1774L488.639 74.746L477.042 71.1675L474.779 69.8792L474.567 70.0939L470.96 69.5929L469.758 70.3086L470.253 65.084L464.455 68.09L457.383 69.2351L457.313 69.092V69.092ZM471.172 65.2988L471.031 64.7978L470.536 65.0125L471.172 65.2988ZM468.627 64.7978L468.839 64.3684L468.698 64.2252L468.627 64.7978ZM473.789 63.5811L473.577 62.5791L473.365 63.7958L473.789 63.5811Z" fill="#D6D6D6" fill-opacity="0.4" stroke="white" stroke-opacity="0.6" stroke-width="0.970631" stroke-linejoin="round"/>
<path d="M608.696 148.997L598.508 151.516L595.351 137.842L595.207 137.914L594.848 153.675L592.552 157.129L589.898 159.145L589.395 158.569L586.453 162.599L586.669 165.765L584.875 166.053L582.435 169.796L583.296 172.243L582.22 174.617L579.135 176.129V176.273L580.57 181.31L584.66 186.276L586.956 187.571H588.749L588.965 187.643L589.108 187.715L589.898 189.946L594.418 191.602L596.212 190.018L598.077 189.731L602.023 186.636L606.831 185.197L608.122 183.11L608.409 178.792L610.131 175.481L612.284 165.694L616.661 167.205L618.096 162.959L620.32 160.512L623.979 153.531L623.836 149.357L630.509 152.236L630.939 149.213V149.141L628.858 145.543L624.553 145.039L622.042 146.982V148.421L619.89 148.925L616.732 151.156L615.082 151.516L611.782 156.194L610.131 148.637L608.696 148.997V148.997Z" fill="#D6D6D6" fill-opacity="0.4" stroke="white" stroke-opacity="0.6" stroke-width="0.970631" stroke-linejoin="round"/>
<path d="M650.488 138.211L650.779 139.236L656.821 155.436L663.736 153.522L663.663 153.385H663.809L664.027 153.454L664.172 153.385L664.027 153.112L662.28 148.738L653.764 141.15L654.128 135.887H652.381L651.071 136.844L650.488 138.211H650.488Z" fill="#D6D6D6" fill-opacity="0.4" stroke="white" stroke-opacity="0.6" stroke-width="0.970631" stroke-linejoin="round"/>
<path d="M638.759 154.031L639.178 154.276L639.345 154.337L639.513 154.276L639.68 154.337L640.267 154.581L640.434 154.764V155.192L640.602 155.436L641.691 153.97L640.518 153.481L639.094 153.543L638.759 154.031V154.031Z" fill="#D6D6D6" fill-opacity="0.4" stroke="white" stroke-opacity="0.6" stroke-width="0.970631" stroke-linejoin="round"/>
<path d="M663.667 159.774L664.172 156.015L663.739 158.8L663.45 159.983L663.378 160.123L663.595 160.053L663.667 159.774V159.774ZM664.028 153.299L663.884 153.369L664.028 153.787V154.622V153.299V153.299ZM609.436 148.982L611.096 156.293L614.418 151.768L616.079 151.419L619.256 149.261L621.423 148.774V147.381L623.95 145.501L628.283 145.989L630.377 149.47L630.594 149.54L633.915 150.375L636.298 152.046L638.609 153.021L638.826 153.23L639.115 152.673L640.342 152.603L641.353 153.16L640.415 154.831V154.901L639.043 158.939L643.52 161.724L647.997 161.933L650.958 163.256L649.73 159.914L645.903 158.66L644.964 155.806L647.347 158.869L649.297 159.148L647.564 157.477L646.192 152.533L646.553 149.679L645.036 146.546L646.625 145.292L647.78 141.254L647.347 147.242L648.575 149.261L649.73 146.894L650.38 150.793L649.152 153.647L652.691 154.901L649.658 155.875L651.246 158.73L653.846 159.566L655.29 157.129L655.146 160.54L657.601 160.471L659.19 162.211H659.262L659.767 161.585L661.212 160.958L662.15 160.61L662.078 160.471L663.956 155.11V154.901L663.595 153.508V153.439L656.735 155.388L650.741 138.887L650.452 137.842L649.224 138.19L644.097 139.722L615.862 147.311L610.735 148.634L609.436 148.982V148.982Z" fill="#D6D6D6" fill-opacity="0.4" stroke="white" stroke-opacity="0.6" stroke-width="0.970631" stroke-linejoin="round"/>
<path d="M668.104 136.987L667.736 136.148V136.987H668.104ZM668.839 134.399L669.06 132.3L668.619 134.119L668.839 134.399ZM665.825 112.922L658.105 111.103L656.781 110.753L655.531 110.474L652.443 116.98L653.767 118.519L653.693 123.206L655.09 123.416L657.958 130.551L657.811 130.761L654.208 135.798L654.576 139.645L663.251 142.444L663.325 145.662L665.31 143.003L665.604 139.156L667.663 137.827L666.854 134.958L668.398 131.53V124.045L667.884 121.597L664.428 121.667L665.31 118.309L665.825 112.922V112.922Z" fill="#D6D6D6" fill-opacity="0.3" stroke="white" stroke-opacity="0.6" stroke-width="0.970631" stroke-linejoin="round"/>
<path d="M665.316 118.319L664.238 119.82L663.951 120.248L665.316 118.319ZM675.231 114.819L678.823 111.675V111.532L675.231 114.819ZM665.819 117.033V114.604L665.603 115.89L665.819 117.033ZM682.487 105.602L681.625 105.388L681.481 106.031L682.487 105.602ZM684.427 104.316L684.355 105.031L684.499 104.602L684.427 104.316H684.427ZM682.415 104.388L677.602 108.817L670.201 111.961L668.261 113.604L668.118 115.176L666.106 116.819L666.393 118.962L669.483 117.748L674.009 114.104L679.039 111.461L686.654 104.316L681.266 108.389L679.541 109.103L682.415 104.388ZM684.643 101.387L684.93 100.958L684.068 101.959L684.643 101.387ZM603.886 98.7435L602.736 98.6006L603.599 99.7437L603.886 98.7435ZM627.739 76.8815L627.883 76.0956L627.308 76.8101L627.739 76.8815V76.8815ZM628.099 71.7375L627.811 71.8804L627.452 72.6663L628.099 71.7375ZM597.707 112.318L598.21 114.461L602.018 115.39L623.86 109.46L645.845 102.887L649.868 105.959L650.659 107.746L655.329 109.746L655.473 110.032L656.694 110.318L657.987 110.675L665.531 112.532L665.387 112.175L666.034 115.104L667.471 114.747L668.261 111.532V111.461L666.968 110.246L668.836 107.96L667.974 106.888L665.244 96.3858L665.1 95.6714L664.741 95.457L664.525 92.3135L664.31 88.8841L664.094 85.169V84.9547L663.951 85.0262L660.358 73.3093L656.55 67.3794L655.473 60.3064L652.239 52.8047L651.808 53.019L636.792 58.0201L633.775 61.2351L630.398 67.6652L630.541 69.094L626.087 75.8098L628.817 76.7386L629.607 81.8112L626.446 85.955L616.962 91.6705L615.166 90.9561L608.125 91.9563L601.587 95.8857L601.946 97.9576L604.245 99.9581L602.952 106.245L597.779 112.247L597.707 112.318V112.318Z" fill="#D6D6D6" fill-opacity="0.3" stroke="white" stroke-opacity="0.6" stroke-width="0.970631" stroke-linejoin="round"/>
<path d="M654.846 110.364L650.23 108.4L649.449 106.647L645.473 103.632L623.743 110.083L602.156 115.904L598.392 114.992L597.895 112.888L596.688 113.8L594.771 115.132L591.291 118.638L590.865 118.989L592.854 127.614L593.209 129.157L594.984 136.73L595.339 138.203L598.463 151.527L608.547 149.072L609.967 148.722L611.245 148.371L616.287 147.039L644.052 139.395L649.094 137.852L650.301 137.502L650.869 136.099L652.148 135.118H653.852L654.065 134.486L656.834 131.401L657.118 130.91L657.331 130.77L654.562 123.617L653.213 123.407L653.284 118.709L652.006 117.166L654.988 110.644L654.846 110.364Z" fill="#D6D6D6" fill-opacity="0.4" stroke="white" stroke-opacity="0.6" stroke-width="0.970631" stroke-linejoin="round"/>
<path d="M689.022 71.3053H688.95L689.094 71.3759L689.022 71.3053H689.022ZM694.362 56.255L693.785 55.4071V55.831L694.362 56.255ZM693.352 55.4777V54.7712L693.279 54.3472L693.352 55.4777ZM695.949 52.5101L695.805 52.4394L695.877 52.6514L695.949 52.5101L695.949 52.5101ZM703.165 48.9772L703.021 47.9173L702.732 48.4119L703.165 48.9772ZM701.361 49.4011L701.434 48.6239L700.568 48.7652L701.361 49.4011ZM704.031 47.0694H703.743V47.2107L704.031 47.0694ZM700.423 48.1293L699.774 47.9879L699.702 48.6239L700.423 48.1293ZM704.104 45.9388L704.753 46.4335L704.536 45.8682L704.104 45.9388ZM702.155 46.0095L701.506 47.2107L702.372 46.7867L702.155 46.0095ZM699.052 46.0802L698.764 46.5041L698.98 47.14L699.052 46.0802ZM703.31 43.7484L703.238 43.1832L703.021 43.5365L703.31 43.7484H703.31ZM702.949 44.0311L702.299 43.4658V43.9604L702.949 44.0311V44.0311ZM698.908 45.6562L698.764 44.879L698.475 45.5149L698.908 45.6562ZM705.763 43.1832L704.681 44.7376L704.609 43.6071L705.763 43.1832ZM711.031 38.449L710.526 37.7425L710.237 37.8838L711.031 38.449ZM712.979 35.2694L712.546 35.0574L712.474 35.2694H712.979ZM713.917 29.758H713.268L713.989 29.97L713.917 29.758H713.917ZM715 30.4646L714.783 29.1928L714.206 29.1221L715 30.4646ZM713.845 29.3341L713.701 27.9916L713.196 28.9101L713.845 29.3341ZM671.992 40.4275L682.455 64.4514L682.6 64.946L687.146 70.3867V70.316L687.867 70.104L688.012 66.0765L689.166 64.6633L689.888 60.9184L689.239 60.2825L690.465 56.6082L694.651 54.7005L697.393 51.4502L698.403 45.7975L702.805 45.5149L702.227 42.6179L707.712 40.5688L708.072 37.3891L709.371 37.6718L712.979 34.7748L714.567 31.0299L710.887 27.4263L706.99 26.649L705.547 23.752V22.0562L703.165 22.7628L700.495 21.8443V18.9473L693.279 3.68502L688.012 1L682.167 5.80478L680.579 5.52215L679.208 3.0491L677.332 3.75568L674.662 16.7568L675.6 20.9964L676.394 29.6167L674.301 36.2586L675.745 37.3185L674.013 40.5688L672.137 40.2861L671.992 40.4274V40.4275Z" fill="#D6D6D6" fill-opacity="0.3" stroke="white" stroke-opacity="0.6" stroke-width="0.970631" stroke-linejoin="round"/>
<path d="M522.521 86.6429L522.162 86.0744L522.091 86.785L522.521 86.6429ZM523.67 85.3638L522.809 84.2269L522.665 84.7243L523.67 85.3638ZM524.389 80.2476L523.67 79.608V79.7502L524.389 80.2476ZM522.593 135.887L531.498 134.466L534.012 133.968L545 132.05L545.215 132.974L545.933 132.76L550.673 131.766L555.197 130.7L559.794 129.563L559.722 129.35L562.092 124.731L561.876 120.894L564.533 114.285L566.616 115.493L567.406 114.001L567.191 108.316L565.252 104.763L562.379 97.2308L559.865 94.4594L558.573 94.1041L553.905 97.3018L554.407 97.9413L551.966 102.489L549.596 102.063L548.878 97.3018L549.883 96.9465L551.966 92.1855L552.181 83.8005L548.949 76.6946L541.768 75.4866L541.05 74.4207L534.371 72.5021L531.355 76.1972L531.642 79.3949L529.344 82.2372L529.847 86.6429L527.62 88.2062V82.6636L525.609 86.8561L523.24 90.5512L521.66 91.7592L522.45 95.6674L521.444 99.7178L522.019 104.763L521.301 107.25L526.471 117.056L527.118 120.822L526.471 127.786L523.024 135.603L522.593 135.887ZM537.962 71.8626L536.095 72.0047L537.244 72.8574L537.962 71.8626ZM527.046 73.7101H526.471L527.118 73.9944L527.046 73.7101H527.046ZM539.613 64.6856L538.895 63.5486L538.608 63.6197L539.613 64.6856V64.6856ZM474.549 69.8729L476.847 71.152L488.625 74.705L494.083 76.1261L499.397 76.4814L503.275 79.608V84.4401L506.722 87.8509V87.7798L509.523 79.7501L512.898 77.4052L515.484 74.5628L515.914 77.1209L518.572 73.0706L524.963 70.6545L525.466 69.6597L531.929 70.4414L534.443 71.7204L535.664 68.5938L536.813 69.3044L541.84 68.5228L540.619 66.5331L538.393 65.254L538.823 60.6352L534.443 63.0512L530.421 62.5538L529.128 59.4982L529.559 58.5034L524.101 61.0615L520.582 61.2747L514.263 65.1119L513.545 66.5331L509.667 65.6093L507.225 66.6752L502.341 62.4827L491.497 59.214L491.282 57.9349L484.316 64.5434L480.366 65.5383L474.764 69.7308L474.549 69.8729V69.8729ZM499.971 53.7424L491.569 57.8639L494.37 60.5641L495.447 57.8639L498.32 54.382L499.971 53.7424ZM490.564 44.0073L484.818 47.9156L484.531 49.8342L489.056 46.5655L490.564 44.0073Z" fill="#D6D6D6" fill-opacity="0.3" stroke="white" stroke-opacity="0.6" stroke-width="0.970631" stroke-linejoin="round"/>
<path d="M68.0012 384.321L67.6447 384.464L67.9299 384.536L68.0012 384.321H68.0012ZM70.639 384.752V384.824V384.752ZM69.3557 383.531V383.746L69.4983 383.674L69.3557 383.531ZM68.7141 383.172V383.1V383.172ZM70.0687 383.89V383.746L69.9973 383.818L70.0687 383.89V383.89ZM69.9261 383.746V383.674H69.7835L69.9261 383.746ZM14.3177 336.561L14.2465 337.064L14.389 338.5L14.3177 336.561H14.3177ZM13.9613 334.622L14.0326 335.268L14.1039 335.053L13.9613 334.622H13.9613ZM69.9261 382.884L69.9974 382.453L69.7122 382.597L69.9261 382.884H69.9261ZM78.0535 386.404L77.9821 386.332L78.1247 386.619L78.0534 386.403L78.0535 386.404ZM72.7778 383.89L71.9936 383.172V384.895L72.7778 383.89ZM74.5601 385.47L74.4888 384.967L73.2768 384.895L74.5601 385.47H74.5601ZM78.8377 386.475L78.7663 386.619H78.9089L78.8376 386.475H78.8377ZM79.1228 386.547H78.9803L79.2654 386.619L79.1228 386.547ZM79.9784 386.834H79.907H79.8357H79.9783H79.9784ZM17.0269 338.141L17.312 338.213L17.5259 338.141H17.0269ZM78.4099 385.829L77.8396 385.757L78.0535 385.973L78.4099 385.829ZM13.1771 332.539L12.179 332.108L12.1077 332.324L13.1771 332.539H13.1771ZM80.1922 385.973L80.0497 385.901V385.973H80.1922ZM84.5411 386.834L81.7607 387.05L81.119 387.337L84.5411 386.834ZM8.11528 321.264H7.33105L7.47364 321.479L8.11528 321.264ZM93.1675 390.138V389.851H93.0249L93.1675 390.138ZM96.8747 390.21L97.0173 390.066L96.8747 389.923V390.21ZM99.6552 391L99.7977 390.928H99.7264L99.6551 391H99.6552ZM97.3738 389.707L97.3025 389.42H97.1599L97.3738 389.707H97.3738ZM102.15 390.785L102.079 390.856H102.15V390.785ZM8.54303 317.601L7.47364 317.744L8.8282 318.965L8.54303 317.601ZM98.3719 389.707L98.5145 389.276H98.4432L98.3718 389.707H98.3719ZM110.42 388.63L110.492 388.486L110.349 388.414L110.42 388.63L110.42 388.63ZM108.638 387.984L106.143 390.21L107.925 390.066L109.993 388.415L108.638 387.984ZM113.13 388.774L112.63 388.63L112.987 388.917L113.13 388.774ZM114.128 388.845L113.343 388.63L113.201 388.702L114.128 388.845V388.845ZM111.418 387.84H110.634L111.989 388.199L111.418 387.84ZM114.698 388.558L114.627 388.415L114.341 388.486L114.698 388.558L114.698 388.558ZM112.559 387.696L112.274 387.553V388.343L112.559 387.696ZM121.685 389.492L121.613 389.42H121.471L121.685 389.492H121.685ZM121.827 389.42V389.348L121.685 389.276L121.827 389.42V389.42ZM120.615 388.989L120.758 389.276V389.204L120.615 388.989ZM121.257 388.989L120.615 388.774L121.399 389.348L121.257 388.989ZM122.184 388.271V388.343V388.271ZM130.667 389.348L130.525 389.061H130.454L130.667 389.348H130.667ZM207.379 384.536L207.236 384.393L207.307 384.536H207.379H207.379ZM120.972 386.763V386.691L120.9 386.763H120.972ZM209.446 383.244L209.66 383.531H209.802L209.446 383.244ZM131.523 388.63L131.452 388.702V388.917L131.523 388.63V388.63ZM122.683 387.337L122.825 386.763H122.754L122.683 387.337H122.683ZM213.581 381.592L212.939 381.951L213.51 382.238L213.581 381.592H213.581ZM123.966 386.978L123.895 386.834L123.966 386.978ZM118.619 385.398L116.837 385.757L115.268 387.84L118.619 385.398ZM131.38 388.127L130.953 388.486L131.38 388.414V388.127V388.127ZM213.581 381.233L213.438 380.945L213.367 381.089L213.581 381.233H213.581ZM124.536 386.26L124.037 386.188L124.536 386.691V386.26V386.26ZM208.876 382.166L208.733 382.31L208.876 382.813V382.166ZM125.677 386.188L125.463 386.26L125.748 386.475L125.677 386.188L125.677 386.188ZM130.953 387.696H130.739L130.596 387.553L130.953 387.696ZM125.107 386.188L124.75 385.973L124.893 386.188H125.107ZM129.883 386.978L129.242 387.194L128.814 388.343L129.883 386.978ZM207.307 381.951V382.454L207.592 382.094L207.307 381.951ZM121.471 384.68L122.041 384.536H121.97L121.471 384.68H121.471ZM120.758 384.249L120.615 384.105V384.177L120.758 384.249V384.249ZM207.307 381.448L207.165 381.376L207.093 381.592L207.307 381.448L207.307 381.448ZM129.099 385.757L128.956 385.685L128.814 385.901L129.099 385.757V385.757ZM206.594 381.592L206.666 381.233L206.523 381.161L206.594 381.592H206.594ZM206.024 381.233L205.81 381.52L206.167 381.592L206.024 381.233ZM132.093 384.752L131.951 384.608H131.879L132.093 384.752H132.093ZM205.81 379.94L206.38 380.155L206.594 379.868L205.81 379.94ZM206.666 379.437L206.452 379.581L206.808 379.796L206.666 379.437ZM205.026 379.868L204.883 379.581L204.741 379.724L205.026 379.868ZM212.155 377.211L211.228 379.868L212.155 379.293V377.211ZM127.673 382.741H127.602H127.673ZM205.881 378.216L205.24 378.863L205.382 379.581L205.881 378.216ZM139.508 383.962V383.674L139.436 383.818L139.508 383.962ZM205.097 377.498L207.165 380.658L211.799 383.603L210.729 381.089L206.309 377.283L205.097 377.498ZM136.656 382.813L136.585 382.597L136.442 382.669L136.656 382.813H136.656ZM207.521 376.277L207.236 377.354L207.735 376.995L207.521 376.277ZM209.018 376.277L208.947 376.995L209.589 377.211L209.018 376.277H209.018ZM138.937 381.879L138.581 381.807L138.225 381.951L138.937 381.879V381.879ZM146.281 382.454L145.995 382.956L146.138 382.525L146.281 382.453V382.454ZM147.35 382.525L146.708 382.597L147.065 383.028L147.35 382.525ZM104.147 373.332L104.86 373.692L104.717 373.548L104.147 373.332ZM132.45 380.443L132.521 380.371L132.45 380.443ZM132.664 380.371H132.735V380.299L132.664 380.371ZM206.38 374.841L206.737 376.205L207.45 375.774L206.38 374.841ZM134.589 379.581L134.66 379.509L134.589 379.581ZM203.315 375.415L203.671 378.719L204.384 378.001L203.315 375.415ZM203.671 374.338L205.311 376.636L205.097 375.128L203.671 374.338ZM198.609 374.912L198.182 376.277L198.752 375.343L198.609 374.912ZM141.575 378.432L141.504 378.36L141.575 378.432ZM148.348 378.575L148.206 378.36L148.348 378.647V378.575ZM198.752 373.835L201.604 378.575L201.176 375.343L198.752 373.835ZM152.34 376.349L152.127 376.564L152.483 376.708L152.34 376.349ZM151.414 376.493L151.485 376.277H151.2L151.414 376.493H151.414ZM150.701 376.493L148.847 377.713L146.566 380.73L147.706 381.951L152.982 378.001L150.701 376.493ZM195.686 371.824L195.187 371.537V371.968L195.686 371.824ZM150.273 375.631L150.344 375.918L150.843 376.205L150.273 375.631H150.273ZM197.041 370.46L195.615 371.178L196.97 371.609L197.041 370.46H197.041ZM196.114 370.46L195.972 370.316L195.9 370.46H196.114H196.114ZM200.463 369.311L199.893 369.095L199.75 369.526L200.463 369.311ZM197.398 369.813L196.898 369.741V369.885L197.398 369.813V369.813ZM198.966 369.239L201.889 373.548L201.105 369.598L198.966 369.239ZM151.913 373.907L150.202 375.2L150.986 376.062L153.267 374.338L151.913 373.907ZM132.521 371.178L132.45 371.106V371.178H132.521ZM131.737 370.819L131.666 370.46V370.603L131.737 370.819ZM153.624 371.752L153.481 371.824V371.896L153.624 371.753V371.752ZM152.911 371.609H152.84L152.697 371.824L152.911 371.609H152.911ZM154.622 371.034L154.408 370.891V370.962L154.622 371.034V371.034ZM155.192 370.962L154.978 370.819V370.891L155.192 370.962V370.962ZM154.265 370.747H153.98V370.819L154.265 370.747ZM168.453 369.311L168.524 369.095L168.381 369.239L168.453 369.311L168.453 369.311ZM172.802 367.012L173.657 365.935L173.372 366.151L172.802 367.012ZM164.104 366.869L164.389 366.653L164.46 366.366L164.104 366.869H164.104ZM164.104 366.079L163.819 366.294L164.318 366.151L164.104 366.079V366.079ZM152.412 366.079L152.34 365.791H152.269L152.412 366.079H152.412ZM163.819 366.007L163.533 366.294L163.391 366.581L163.819 366.007ZM171.661 365.145H171.732H171.803H171.661H171.661ZM172.017 365.145L171.875 365.073V365.145H172.017ZM171.162 365.073L171.233 365.145V365.073H171.162ZM165.316 365.504L165.601 365.217L165.244 365.504H165.316H165.316ZM166.171 364.858L164.46 367.659L166.67 365.073L166.171 364.858ZM163.961 365.217L163.747 364.93L163.676 365.073L163.961 365.217H163.961ZM169.379 364.57L169.237 364.499L169.308 364.57H169.38H169.379ZM171.233 364.714V364.211L171.09 364.427L171.233 364.714ZM118.904 359.184L115.482 359.04L117.835 361.554L118.904 359.184ZM167.597 364.283L167.74 364.786L168.096 364.211L167.597 364.283V364.283ZM164.745 364.211L164.532 365.791L164.888 364.786L164.745 364.211ZM102.863 352.289L102.935 352.002L102.863 352.289ZM164.033 363.206L164.104 363.421L164.246 363.349L164.033 363.206L164.033 363.206ZM163.676 363.493L163.533 363.062L163.32 363.206L163.676 363.493ZM167.027 362.631V362.344L166.813 362.488L167.027 362.631ZM163.819 362.2V362.919L164.033 362.416L163.819 362.2ZM158.4 361.339V361.123V361.339ZM121.186 352.433L121.328 352.002L121.257 352.074L121.186 352.433L121.186 352.433ZM121.399 351.715L121.328 351.643L121.257 351.715H121.399H121.399ZM124.536 349.991V349.919V349.991ZM124.536 349.704L124.465 349.56L124.536 349.704ZM125.82 347.837H125.748H125.82ZM126.247 347.98L125.962 347.837V347.908L126.247 347.98V347.98ZM125.82 347.693V347.549L125.677 347.693H125.82ZM114.413 344.317L114.27 343.958L114.199 343.743L114.413 344.317H114.413ZM115.482 343.025H115.553L115.625 343.097L115.482 343.025H115.482ZM113.557 342.666L112.987 341.947L113.415 342.522L113.557 342.666ZM112.417 341.516H112.274L112.488 341.588L112.417 341.516H112.417ZM112.417 340.655L112.559 340.726L112.417 340.655ZM131.309 346.328L130.525 346.4L130.953 346.616L131.309 346.328V346.328ZM111.632 339.362L111.062 341.516L112.844 341.804L115.197 344.246L116.623 343.599L111.632 339.362ZM124.109 340.224V340.08V340.152V340.224V340.224ZM120.544 332.611L120.401 332.539L120.473 332.611H120.544H120.544ZM122.611 333.329L122.825 333.257H122.754L122.611 333.329H122.611ZM124.037 332.898H124.251L124.893 332.611L124.037 332.898ZM126.604 332.108L126.746 331.964L126.533 332.108H126.604H126.604ZM126.96 332.036L127.388 331.821L127.032 331.893L126.96 332.036L126.96 332.036ZM128.03 331.605L127.673 331.677V331.749L128.03 331.605V331.605ZM173.8 318.606L173.514 318.391L173.015 318.175L173.8 318.606ZM136.442 317.026L137.084 316.164L136.727 316.451L136.442 317.026ZM137.298 316.021L137.583 315.59L137.44 315.733L137.298 316.021ZM137.725 315.446L138.225 315.015L137.939 315.159L137.725 315.446ZM160.183 315.59L160.539 315.949H160.753L160.183 315.59ZM148.705 310.85L145.782 313.291L143.999 312.789L139.864 315.159L139.08 314.656L134.375 319.971L129.598 321.048L130.026 323.633L132.165 326.578L136.157 330.456L135.515 331.964L138.51 333.257L136.941 333.544L135.016 332.036L136.014 334.263L134.731 335.053L130.667 331.318L127.459 331.893L121.97 333.975L124.465 336.776L124.109 338.5L125.748 340.511L131.167 342.665L135.088 340.655L135.729 342.163L134.66 346.687H131.38L127.531 348.411L127.317 347.19L125.321 347.98L124.394 350.063L121.114 352.577V356.239L122.398 356.814L121.399 359.902L125.677 363.637L128.386 362.488L127.816 367.084L128.6 368.089L131.879 368.808L133.091 370.172L135.943 370.388L137.298 371.824L140.221 370.962L138.866 372.83L137.797 376.636L129.099 382.31L127.958 383.459L126.319 382.812L123.681 383.459L119.902 385.972L125.82 384.249L126.675 385.542L134.303 383.028L134.517 384.033L137.512 381.017L143.785 376.636L144.284 376.923L149.774 372.542L148.348 370.819L150.202 367.73L155.05 361.913L158.757 361.195L159.898 361.985L155.406 363.278L154.194 368.089L154.337 370.675L155.905 370.531L163.462 365.935L164.033 364.211L163.391 361.554L165.672 362.129L167.312 361.051L172.017 363.924L171.661 364.714L182.355 366.079L184.85 365.289L185.563 366.366L194.831 370.819L196.399 369.885L196.542 364.499L197.754 366.94L203.743 371.321L204.242 373.117L209.446 376.061L210.801 379.868L212.084 376.923L214.722 382.094L216.504 379.15L215.078 375.487L209.589 374.912L201.176 366.797L196.613 363.421L193.12 366.869H191.052L186.276 363.709L181.571 363.493L174.869 320.904L173.728 318.893L171.019 317.242L166.956 318.032L163.819 317.385L159.826 315.805L155.62 316.092L154.551 314.081L151.2 313.579L150.629 312.358L149.132 314.081L148.705 310.85Z" fill="#D6D6D6" fill-opacity="0.69" stroke="white" stroke-opacity="0.6" stroke-width="0.970631" stroke-linejoin="round"/>
</svg>
