<svg width="59" height="33" viewBox="0 0 59 33" fill="none" xmlns="http://www.w3.org/2000/svg">
<path fill-rule="evenodd" clip-rule="evenodd" d="M0 0H9.07692V12.5H18.1538V6.4C18.1538 4.15979 18.1538 3.03969 18.5898 2.18404C18.9733 1.43139 19.5852 0.819467 20.3379 0.435974C21.1935 0 22.3136 0 24.5538 0H27.2308H36.3077H40.8462H49.9231H59V8H49.9231V33H40.8462V8H36.3077H27.2308V12.5H36.3077V20.5H27.2308V25H36.3077V33H27.2308H24.5538C22.3136 33 21.1935 33 20.3379 32.564C19.5852 32.1805 18.9733 31.5686 18.5898 30.816C18.1538 29.9603 18.1538 28.8402 18.1538 26.6V20.5H9.07692V33H0V0Z" fill="#4733BF"/>
</svg>
