<svg width="261" height="59" viewBox="0 0 261 59" fill="none" xmlns="http://www.w3.org/2000/svg">
<g clip-path="url(#clip0_2037_58)">
<path d="M202.056 0H0V59H202.056V0Z" fill="#002C76"/>
<path d="M231.585 29.5159H202.165V58.9183H231.585V29.5159Z" fill="#04858E"/>
<path d="M216.872 29.5118L202.163 44.2123L216.872 58.9128L231.581 44.2123L216.872 29.5118Z" fill="#9CE2BC"/>
<path d="M261 0.113504H231.58V29.5159H261V0.113504Z" fill="#D8D812"/>
<path d="M231.58 29.5159H261L231.58 0.113504V29.5159Z" fill="#69A338"/>
<path d="M261 29.5159H231.58V58.9183H261V29.5159Z" fill="#FA9D33"/>
<path d="M261 29.5159H231.58V39.3182H261V29.5159Z" fill="#C05228"/>
<path d="M261 49.116H231.58V58.9183H261V49.116Z" fill="#C05228"/>
<path d="M202.165 0.113504V29.5159H231.585V0.113504H202.165ZM226.678 24.6125H207.067V5.01239H226.678V24.6125Z" fill="#DABFF7"/>
<path d="M226.678 5.01239H207.067V24.6125H226.678V5.01239Z" fill="#B15DC0"/>
<path d="M48.7637 14.9691C48.5729 14.7784 48.5729 14.2018 48.8364 14.1291C49.6541 14.1745 50.6854 14.2018 51.862 14.2018C52.6524 14.2018 53.3521 14.2018 54.2152 14.1291C54.2152 15.6138 55.0557 17.0803 56.1096 19.3322L57.6951 22.7147C57.9359 23.1959 58.6537 24.5625 58.9898 25.1618C59.3033 24.5852 59.6849 23.8406 60.3345 22.4286L61.5611 19.7908C62.7377 17.3209 63.242 16.1949 63.769 14.1291C64.8729 14.2245 65.618 14.2018 66.3357 14.2018C67.1262 14.2018 68.2301 14.1791 69.0978 14.1291C69.3613 14.2744 69.3613 14.7284 69.1705 14.9691L68.4754 15.0871C67.4896 15.2778 67.0126 15.5457 67.0126 16.8124C67.0126 21.7521 67.0581 24.3446 67.2034 27.3684C67.2534 28.4716 67.3488 29.0255 68.2846 29.1663L69.0524 29.2616C69.2432 29.4523 69.2432 30.0062 69.0024 30.1016C67.8985 30.0516 66.8673 30.0289 65.6906 30.0289C64.6094 30.0289 63.292 30.0516 62.1381 30.1016C61.8519 29.9835 61.8246 29.4296 62.0654 29.2616L62.7877 29.1663C63.8916 28.9484 63.8916 28.735 63.8916 27.273L63.8462 21.0348V18.3016H63.7962C62.0199 22.1381 60.0983 26.1471 58.5174 30.1969C58.3992 30.2923 58.2312 30.3649 58.0358 30.3649C57.8177 30.3649 57.5543 30.315 57.4134 30.2196C56.4776 27.2458 53.6201 21.4162 52.2754 18.297H52.2254C52.13 19.8589 52.08 20.7942 52.0573 22.0382C52.0346 23.6 52.0119 25.9972 52.0119 27.4365C52.0119 28.6351 52.1573 28.9484 53.1158 29.1164L54.0517 29.2616C54.2425 29.4296 54.197 29.9835 54.0017 30.1016C53.1158 30.0516 52.08 30.0289 51.1715 30.0289C50.4037 30.0289 49.4179 30.0516 48.4593 30.1016C48.1459 30.0062 48.1459 29.3842 48.3639 29.2616L48.7955 29.189C50.0176 28.9484 50.0902 28.8303 50.2356 27.3411C50.3537 26.1652 50.4764 24.0813 50.6218 21.8021C50.7172 20.1948 50.7898 18.2516 50.7898 16.9577C50.7898 15.5911 50.2629 15.2778 49.2998 15.0644L48.7728 14.9691H48.7637Z" fill="white"/>
<path d="M85.6521 22.0427C85.6521 27.273 82.1496 30.4149 76.9888 30.4149C72.1642 30.4149 68.6616 27.2503 68.6616 22.2334C68.6616 17.4843 72.2142 13.8159 77.2296 13.8159C82.245 13.8159 85.6521 17.1756 85.6521 22.0427ZM77.0388 14.9191C74.0859 14.9191 72.5004 17.675 72.5004 21.684C72.5004 24.6125 73.5316 29.3116 77.4431 29.3116C80.5868 29.3116 81.8134 26.2424 81.8134 22.356C81.8134 18.2562 80.0144 14.9191 77.0388 14.9191Z" fill="white"/>
<path d="M114.214 22.4286C113.228 22.4286 113.205 22.4513 113.205 23.1233V26.5784C113.205 28.8076 113.351 28.9756 114.427 29.1708L115.195 29.2662C115.386 29.4115 115.386 29.9608 115.195 30.1061C113.828 30.0562 112.628 30.0335 111.547 30.0335C110.393 30.0335 109.194 30.0562 107.972 30.1061C107.781 29.9608 107.781 29.4115 107.972 29.2662L108.549 29.1935C109.63 28.9801 109.775 28.8122 109.775 26.5784V17.6569C109.775 15.4276 109.63 15.2596 108.549 15.0417L107.972 14.9691C107.781 14.8238 107.781 14.2744 107.972 14.1291C109.148 14.1745 110.398 14.2018 111.547 14.2018C112.628 14.2018 113.828 14.1791 114.882 14.1291C115.072 14.2744 115.072 14.8238 114.882 14.9691L114.377 15.0417C113.346 15.2596 113.201 15.4276 113.201 17.6569V20.44C113.201 21.1347 113.223 21.1574 114.209 21.1574H119.202C120.21 21.1574 120.21 21.1347 120.21 20.44V17.6569C120.21 15.4276 120.092 15.2596 118.988 15.0644L118.339 14.9691C118.148 14.8238 118.148 14.2744 118.339 14.1291C119.656 14.1745 120.837 14.2018 121.987 14.2018C123.136 14.2018 124.267 14.1791 125.371 14.1291C125.562 14.2744 125.562 14.8238 125.371 14.9691L124.89 15.0417C123.786 15.2596 123.64 15.4276 123.64 17.6569V26.5784C123.64 28.8076 123.786 28.9756 124.89 29.1708L125.467 29.2662C125.657 29.4115 125.657 29.9608 125.467 30.1061C124.267 30.0562 123.091 30.0335 121.987 30.0335C120.787 30.0335 119.611 30.0562 118.457 30.1061C118.266 29.9608 118.266 29.4115 118.457 29.2662L118.984 29.1935C120.088 28.9801 120.206 28.8122 120.206 26.5784V23.1233C120.206 22.4513 120.206 22.4286 119.197 22.4286H114.205H114.214Z" fill="white"/>
<path d="M141.939 22.0427C141.939 27.273 138.436 30.4149 133.276 30.4149C128.451 30.4149 124.948 27.2503 124.948 22.2334C124.948 17.4843 128.501 13.8159 133.516 13.8159C138.532 13.8159 141.939 17.1756 141.939 22.0427ZM133.321 14.9191C130.368 14.9191 128.787 17.675 128.787 21.684C128.787 24.6125 129.818 29.3116 133.73 29.3116C136.874 29.3116 138.1 26.2424 138.1 22.356C138.1 18.2562 136.301 14.9191 133.321 14.9191Z" fill="white"/>
<path d="M143.552 17.6569C143.552 15.4276 143.406 15.2596 142.33 15.0644L141.73 14.9464C141.539 14.8011 141.516 14.2744 141.78 14.1291C142.934 14.1745 144.133 14.2018 145.283 14.2018C146.432 14.2018 147.636 14.1791 148.785 14.1291C148.976 14.2744 148.976 14.8011 148.785 14.9464L148.208 15.0417C147.127 15.2596 146.986 15.4276 146.986 17.6569V23.1959C146.986 26.0018 147.3 29.0982 150.948 29.0982C154.019 29.0982 154.954 26.4104 154.954 23.1278V20.2266C154.954 18.2834 154.859 16.4628 154.596 15.8362C154.382 15.3323 153.851 15.187 153.205 15.0689L152.556 14.9509C152.365 14.7602 152.41 14.279 152.556 14.1337C153.851 14.1791 154.786 14.2063 155.772 14.2063C156.663 14.2063 157.548 14.1836 158.462 14.1337C158.607 14.279 158.652 14.7557 158.462 14.9509L158.03 15.0462C157.408 15.1915 156.949 15.3323 156.735 15.8362C156.472 16.4583 156.376 18.2834 156.376 20.2266V22.9144C156.376 25.1709 156.158 27.2322 154.841 28.6941C153.787 29.8201 152.033 30.4239 150.089 30.4239C148.263 30.4239 146.632 30.1334 145.337 29.08C144.088 28.0494 143.561 26.2742 143.561 23.659V17.6614L143.552 17.6569Z" fill="white"/>
<path d="M162.459 30.4149C160.251 30.4149 158.884 29.7883 158.38 29.5023C157.926 28.9756 157.612 27.2503 157.612 25.6159C157.78 25.3026 158.334 25.2799 158.525 25.5432C159.007 27.1005 160.615 29.307 162.655 29.307C164.431 29.307 165.249 28.0857 165.249 26.8826C165.249 24.9394 163.422 23.7907 161.982 23.0688C160.256 22.2062 158.384 20.7669 158.357 18.3924C158.357 15.6819 160.447 13.8113 163.927 13.8113C164.717 13.8113 165.703 13.9067 166.662 14.1927C166.975 14.288 167.189 14.338 167.479 14.3834C167.67 14.91 167.911 16.2085 167.911 17.8112C167.793 18.0973 167.189 18.1245 166.975 17.8839C166.566 16.6626 165.535 14.91 163.809 14.91C162.223 14.91 161.36 15.9407 161.36 17.1393C161.36 18.2426 162.346 19.2505 163.545 19.8725L165.131 20.7124C166.621 21.5024 168.515 22.8963 168.515 25.5341C168.515 28.4853 166.089 30.4058 162.464 30.4058L162.459 30.4149Z" fill="white"/>
<path d="M173.894 20.44C173.894 21.112 173.917 21.1574 174.566 21.1574H176.225C177.474 21.1574 177.737 20.9894 178.001 19.8362L178.119 19.2369C178.287 19.0462 178.887 19.0462 179.005 19.2596C178.955 20.0269 178.932 20.8895 178.932 21.8021C178.932 22.7147 178.955 23.5773 179.005 24.3446C178.887 24.558 178.282 24.5852 178.119 24.3673L178.001 23.768C177.737 22.6148 177.474 22.4241 176.225 22.4241H174.566C173.917 22.4241 173.894 22.4468 173.894 23.1687V26.0245C173.894 27.1277 173.989 27.895 174.276 28.3037C174.589 28.735 175.043 28.9257 176.797 28.9257C178.887 28.9257 179.7 28.853 181.022 26.1425C181.213 25.8792 181.812 25.9745 181.912 26.2606C181.817 27.5091 181.24 29.4523 180.904 30.097C179.632 30.0471 177.328 30.0244 175.361 30.0244H172.24C171.087 30.0244 169.91 30.0471 168.111 30.097C167.92 29.9518 167.92 29.3797 168.111 29.2571L169.238 29.0891C170.319 28.9438 170.46 28.7758 170.46 26.5693V17.6205C170.46 15.4367 170.314 15.2687 169.238 15.078L168.638 14.96C168.424 14.8147 168.447 14.2653 168.688 14.12C169.814 14.1655 170.991 14.1927 172.145 14.1927H177.233C178.769 14.1927 180.136 14.17 180.449 14.12C180.472 14.5014 180.64 16.2312 180.763 17.8385C180.668 18.1018 180.113 18.1518 179.873 17.9338C179.609 17.0939 179.273 16.3765 178.959 16.0406C178.505 15.5865 177.783 15.296 176.606 15.296H174.684C173.894 15.296 173.894 15.3459 173.894 16.2312V20.4309V20.44Z" fill="white"/>
<path d="M90.3678 22.7964C90.3678 22.7964 90.3678 22.8009 90.3632 22.8055L90.2678 22.8736C90.2996 22.86 90.336 22.8463 90.3723 22.8282C90.3723 22.81 90.3723 22.7964 90.3723 22.7918L90.3678 22.7964Z" fill="#004990"/>
<path d="M128.592 31.4636C128.515 31.3229 128.315 31.2593 128.169 31.332C123.236 33.8927 116.099 34.778 116.031 34.7871C107.781 35.568 101.748 34.1015 96.8641 30.7599C96.1281 30.2559 93.9384 28.3127 92.2348 25.8338C91.7396 25.1119 91.2354 24.2992 90.6539 23.3639L90.504 23.1233C90.3995 22.9598 90.3768 22.8736 90.3677 22.8327C90.3313 22.8463 90.295 22.8645 90.2632 22.8781L90.3586 22.81C90.3586 22.81 90.3586 22.8009 90.3631 22.8009C90.3631 22.8009 90.3631 22.8145 90.3631 22.8372C91.2218 22.474 93.5159 21.2436 93.5159 18.515C93.5159 16.4083 92.3257 15.3459 91.3262 14.8283C90.0769 14.1473 88.4733 14.0565 87.0695 14.0565C84.689 14.0565 83.5215 14.0883 82.9536 14.0883C82.8582 14.0883 82.6992 14.1791 82.8173 14.2971C83.358 14.6376 83.7759 14.8783 84.2166 15.3187C84.9253 15.3187 86.5789 15.305 87.0468 15.305C89.7998 15.305 90.7811 17.2346 90.7811 18.8873C90.7811 20.2493 90.4177 21.1664 89.6317 21.7748C89.0093 22.247 87.6101 22.3514 86.7879 22.3651C86.7788 22.7873 86.7879 23.1959 86.7333 23.5955C87.2331 23.6136 87.8055 23.7135 87.9963 24.0132C88.0462 24.0903 88.1008 24.1811 88.1644 24.2765C88.3643 24.5671 88.5596 24.8849 88.7913 25.2526C89.4182 26.2651 90.2768 27.6453 92.0122 29.7338C98.7221 36.93 107.999 37.4249 114.341 36.6985C121.464 35.8858 127.029 33.257 128.269 32.3036C128.796 31.8995 128.655 31.5771 128.592 31.4636Z" fill="white"/>
<path fill-rule="evenodd" clip-rule="evenodd" d="M28.5023 19.5229C28.5023 19.5229 28.0162 18.9281 27.9344 18.3379C27.8527 17.7477 27.8027 16.9895 27.8027 16.9895L25.7447 16.0224C25.7447 16.0224 24.2637 14.8783 23.7322 15.3958C23.228 15.8771 23.228 16.1314 23.069 16.49C22.8736 16.9214 21.2654 19.591 21.2654 19.591C21.2654 19.591 21.1973 19.7136 21.6561 19.4185C22.1195 19.1234 23.2961 18.1291 23.2961 18.1291C23.2961 18.1291 24.0684 17.5297 24.4773 17.7204C24.9134 17.9202 27.5074 19.5002 27.5074 19.5002L28.5023 19.5274V19.5229Z" fill="white"/>
<path fill-rule="evenodd" clip-rule="evenodd" d="M30.9736 18.2698C31.0463 17.8203 30.9736 17.5661 30.383 17.5661C30.115 17.5661 29.8651 17.7295 29.847 18.1063C29.8061 18.8918 30.2422 19.5592 30.2422 19.5592L29.0202 19.5411C29.0202 19.5411 28.6749 18.6376 28.4977 18.2516C28.266 17.7295 28.2297 16.1041 28.3887 15.7182C28.6204 15.1598 28.9611 14.4606 29.847 13.6887C30.1604 13.4118 30.9509 12.6899 31.1008 12.4629C31.6278 11.7137 31.3098 10.3381 31.5642 10.6559C31.914 11.0963 32.8998 13.3255 32.8816 14.0792C32.868 14.6013 32.3274 15.8226 32.4501 15.9316C32.5773 16.0406 32.7544 16.9531 32.5591 17.8385C32.3592 18.7147 31.7141 19.5592 31.7141 19.5592H30.542C30.542 19.5592 30.9009 18.7147 30.9736 18.2698ZM30.3967 16.4356L31.0781 16.3811L31.169 14.8192C31.169 14.8192 31.0963 14.5877 30.9373 14.8011C30.7737 15.0145 29.7198 16.3084 30.1105 16.3674C30.6102 16.4356 30.3967 16.4401 30.3967 16.4401V16.4356Z" fill="white"/>
<path fill-rule="evenodd" clip-rule="evenodd" d="M32.6817 18.5013L32.2501 19.5592H33.6312C33.6312 19.5592 35.5528 18.288 36.0026 18.1608C36.4205 18.0428 36.7794 17.9293 37.261 18.3061C37.5926 18.5604 38.8056 19.6818 39.3098 20.1313C39.5415 20.331 39.2371 19.7045 39.2371 19.7045C39.2371 19.7045 37.7425 15.2052 36.7567 15.5048C35.6755 15.8272 35.2257 16.204 34.7987 16.3992C34.3989 16.5808 33.0179 17.2982 33.0179 17.2982L32.6772 18.5059L32.6817 18.5013Z" fill="white"/>
<path fill-rule="evenodd" clip-rule="evenodd" d="M28.0435 20.104H32.8771L32.7726 21.062C32.7726 21.062 32.6954 21.2527 32.3183 21.2527C31.6869 21.2527 31.8005 21.3208 31.696 21.507C31.5688 21.7294 31.1508 23.0824 31.1508 23.0824L31.06 24.7441L29.7698 24.5353L29.7153 23.2277L29.32 21.7521C29.32 21.7521 29.32 21.289 28.7976 21.2709C28.2979 21.2482 28.3251 21.1392 28.2252 20.8759C28.1116 20.5944 28.048 20.104 28.048 20.104H28.0435Z" fill="white"/>
<path fill-rule="evenodd" clip-rule="evenodd" d="M29.7334 26.315L30.9191 26.4921V34.9187L29.7697 34.5192L29.7334 26.315Z" fill="white"/>
<path fill-rule="evenodd" clip-rule="evenodd" d="M29.7515 36.7802L30.7373 37.1434L30.6101 43.0139C30.6101 43.0139 30.9327 43.695 31.4551 43.695C31.9776 43.695 28.9202 43.695 28.9202 43.695C28.9202 43.695 29.6061 43.5497 29.7515 43.0321C29.8969 42.5145 29.7515 36.7802 29.7515 36.7802Z" fill="white"/>
<path fill-rule="evenodd" clip-rule="evenodd" d="M29.002 41.2205C29.002 41.2205 29.3381 41.2205 29.3518 41.107C29.3699 40.9663 29.429 40.7257 29.2473 40.7166C28.743 40.6939 28.3114 40.9118 27.9707 40.9118C27.6618 40.9118 27.362 40.8664 26.9304 40.7302C26.7032 40.6576 26.5079 40.5395 26.1899 40.3534C26.0491 40.2671 25.7129 40.0991 26.1899 40.4578C26.2898 40.535 26.6169 40.7211 26.8032 40.8165C27.0576 40.9436 27.5391 41.1388 27.8435 41.1751C28.1479 41.2115 28.9974 41.216 28.9974 41.216L29.002 41.2205Z" fill="white"/>
<path fill-rule="evenodd" clip-rule="evenodd" d="M30.9555 40.0356V40.8937C30.9555 40.8937 33.1134 40.2853 33.3087 38.6508C33.504 37.0209 32.2502 36.299 31.696 35.9403C31.1372 35.5816 29.002 34.5237 28.7794 34.3058C28.5659 34.0924 27.094 33.5113 27.5256 32.6214C27.9571 31.7224 29.479 31.7361 29.479 31.7361L29.4972 30.433C29.4972 30.433 26.408 30.8462 25.8538 32.0993C25.5539 32.7803 25.6493 33.5612 26.0491 34.1832C26.3944 34.7235 26.994 35.1321 27.4529 35.4045C28.5704 36.0765 29.9697 36.4624 30.4149 36.6803C30.6965 36.8211 32.2139 37.3114 32.1412 38.5464C32.0776 39.5815 30.9509 40.0401 30.9509 40.0401L30.9555 40.0356Z" fill="white"/>
<path fill-rule="evenodd" clip-rule="evenodd" d="M31.169 30.0153V31.4319C31.169 31.4319 34.767 30.5692 34.5489 27.8406C34.3354 25.1119 30.2513 24.8803 30.0559 24.8395C29.8606 24.8032 26.5125 24.4445 26.5125 24.4445C26.5125 24.4445 25.6993 24.4626 25.7901 23.7634C25.831 23.4456 26.0173 23.3003 26.1899 23.2413C26.4716 23.1414 26.7214 23.0688 26.8577 23.1369C26.885 23.1505 27.1394 23.3548 27.5937 23.3321C28.2933 23.2958 29.4699 22.8963 29.2291 22.2334C29.111 21.9292 28.7658 22.0382 28.4341 21.9474C27.7663 21.7748 27.5891 21.6432 27.1439 21.7158C27.1121 21.7158 26.408 22.0336 26.3126 22.0745C26.04 22.2016 25.4585 22.3605 25.0042 22.7056C24.5681 23.0325 24.3319 23.5001 24.341 23.9768C24.3591 25.1301 26.2762 25.9155 27.1258 25.8656C27.9707 25.8111 30.6647 26.2061 30.6647 26.2061C30.6647 26.2061 32.5228 26.6102 32.8953 27.4637C33.2996 28.3808 32.7681 29.5613 31.9095 29.7974C31.3507 29.9472 31.169 30.0108 31.169 30.0108V30.0153Z" fill="white"/>
<path fill-rule="evenodd" clip-rule="evenodd" d="M15.8729 32.576C15.8729 26.0517 20.2523 20.5717 26.249 18.8963C26.1808 18.8736 26.9395 19.3322 27.0485 19.4139C21.7606 20.7805 17.8218 25.5932 17.8218 31.3093C17.8218 38.0833 23.3188 43.5815 30.0968 43.5815C36.8749 43.5815 42.3763 38.0878 42.3763 31.3093C42.3763 25.8701 38.7602 21.2436 33.8538 19.6364C33.9129 19.5955 34.6625 19.078 34.6443 19.1143C34.6034 19.1052 44.3434 23.6363 44.3434 32.5851C44.3434 40.4396 37.9697 46.8095 30.115 46.8095C22.2603 46.8095 15.882 40.4396 15.882 32.5851L15.8729 32.576Z" fill="white"/>
<path d="M94.4519 34.4375H48.6456C48.3458 34.4375 48.105 34.1968 48.105 33.8972C48.105 33.5975 48.3458 33.3569 48.6456 33.3569H94.4519C94.7517 33.3569 94.9925 33.5975 94.9925 33.8972C94.9925 34.1968 94.7517 34.4375 94.4519 34.4375Z" fill="white"/>
<path d="M181.326 34.4375H128.715C128.415 34.4375 128.174 34.1968 128.174 33.8972C128.174 33.5975 128.415 33.3569 128.715 33.3569H181.326C181.626 33.3569 181.867 33.5975 181.867 33.8972C181.867 34.1968 181.626 34.4375 181.326 34.4375Z" fill="white"/>
<path d="M50.7717 46.7142C49.7223 46.7142 49.0545 46.3873 48.8182 46.2511C48.6683 45.9741 48.5048 45.0888 48.4821 44.4986C48.5457 44.4123 48.7319 44.3851 48.7819 44.4623C48.9681 45.1024 49.4815 46.3283 50.9352 46.3283C51.9846 46.3283 52.498 45.6382 52.498 44.889C52.498 44.3397 52.3844 43.7267 51.4713 43.1365L50.2811 42.3601C49.6541 41.947 48.9273 41.2342 48.9273 40.2081C48.9273 39.0185 49.854 38.056 51.4804 38.056C51.8665 38.056 52.3208 38.1196 52.6434 38.2195C52.8069 38.2558 52.9795 38.2967 53.0795 38.2967C53.1931 38.5963 53.3066 39.2955 53.3066 39.8222C53.2567 39.8993 53.0568 39.9357 52.9932 39.8585C52.8296 39.2592 52.4935 38.4465 51.2896 38.4465C50.0857 38.4465 49.7995 39.2592 49.7995 39.8358C49.7995 40.5622 50.3992 41.0753 50.8625 41.3749L51.862 42.0015C52.6525 42.4873 53.4248 43.2137 53.4248 44.4032C53.4248 45.7789 52.3844 46.7187 50.7581 46.7187L50.7717 46.7142Z" fill="white"/>
<path d="M56.0688 39.123C56.9819 38.4102 58.1449 38.0606 59.4487 38.0606C60.1256 38.0606 61.0751 38.1968 61.6657 38.3602C61.8156 38.3965 61.9019 38.4238 62.0155 38.4102C62.0291 38.6962 62.0927 39.4862 62.1926 40.2489C62.129 40.3352 61.9428 40.3488 61.8565 40.2762C61.6702 39.4272 61.1069 38.451 59.2897 38.451C57.3726 38.451 55.7462 39.6633 55.7462 42.2557C55.7462 44.8482 57.4135 46.3328 59.4623 46.3328C61.0751 46.3328 61.7929 45.284 62.0791 44.544C62.1654 44.4804 62.3562 44.5077 62.4061 44.5939C62.3198 45.2432 61.9927 46.0695 61.8065 46.3101C61.6566 46.3328 61.5066 46.3873 61.3704 46.4372C61.0932 46.5371 60.1937 46.7233 59.3942 46.7233C58.2675 46.7233 57.1909 46.4963 56.2777 45.8833C55.2783 45.1932 54.5015 44.0582 54.5015 42.4419C54.5015 41.0526 55.1284 39.863 56.0779 39.1275L56.0688 39.123Z" fill="white"/>
<path d="M65.7543 42.4736C65.1547 42.4736 65.1274 42.4963 65.1274 42.8732V44.6393C65.1274 45.9514 65.191 46.1285 65.8906 46.2012L66.254 46.2375C66.3267 46.2874 66.304 46.5144 66.2268 46.5508C65.5499 46.5235 65.1274 46.5144 64.6368 46.5144C64.0962 46.5144 63.6737 46.5417 63.183 46.5508C63.1058 46.5144 63.0831 46.3147 63.1558 46.2375L63.3693 46.2012C64.0689 46.0786 64.0962 45.9514 64.0962 44.6393V40.1354C64.0962 38.8233 64.0098 38.6099 63.3557 38.56L63.0286 38.5373C62.9513 38.4873 62.9786 38.2603 63.0513 38.224C63.6646 38.2376 64.0916 38.2603 64.6277 38.2603C65.1138 38.2603 65.5408 38.2467 66.0814 38.224C66.1586 38.2603 66.1814 38.4873 66.1041 38.5373L65.8679 38.56C65.141 38.6372 65.1183 38.8233 65.1183 40.1354V41.5747C65.1183 41.9606 65.1456 41.9742 65.7452 41.9742H69.3251C69.9247 41.9742 69.952 41.9606 69.952 41.5747V40.1354C69.952 38.8233 69.9247 38.6326 69.1888 38.56L68.9525 38.5373C68.8753 38.4873 68.9026 38.2603 68.9753 38.224C69.5522 38.2467 69.9747 38.2603 70.488 38.2603C71.0014 38.2603 71.4012 38.2467 71.9645 38.224C72.0417 38.2603 72.0644 38.4873 71.9918 38.5373L71.7283 38.56C71.0014 38.6372 70.9787 38.8233 70.9787 40.1354V44.6393C70.9787 45.9514 71.0059 46.1149 71.7283 46.2012L72.0281 46.2375C72.1053 46.2874 72.0781 46.5144 72.0054 46.5508C71.4057 46.5235 70.9787 46.5144 70.4926 46.5144C69.9792 46.5144 69.5295 46.5281 68.9798 46.5508C68.9026 46.5144 68.8798 46.3147 68.9571 46.2375L69.1933 46.2012C69.9565 46.1013 69.9338 45.9514 69.9565 44.6393V42.8732C69.9565 42.4963 69.9293 42.4736 69.3296 42.4736H65.7498H65.7543Z" fill="white"/>
<path d="M72.3914 42.4736C72.3914 39.972 74.2676 38.056 76.848 38.056C79.7418 38.056 81.191 40.1445 81.191 42.3465C81.191 44.8754 79.2648 46.7142 76.848 46.7142C74.0677 46.7142 72.3914 44.7256 72.3914 42.4736ZM79.9372 42.737C79.9372 40.6712 79.024 38.4465 76.6344 38.4465C75.3306 38.4465 73.6407 39.3364 73.6407 42.0741C73.6407 43.9265 74.5402 46.3283 77.007 46.3283C78.5107 46.3283 79.9372 45.2023 79.9372 42.737Z" fill="white"/>
<path d="M82.1904 42.4736C82.1904 39.972 84.0667 38.056 86.647 38.056C89.5409 38.056 90.9901 40.1445 90.9901 42.3465C90.9901 44.8754 89.0639 46.7142 86.647 46.7142C83.8668 46.7142 82.1904 44.7256 82.1904 42.4736ZM89.7408 42.737C89.7408 40.6712 88.8276 38.4465 86.4335 38.4465C85.1297 38.4465 83.4397 39.3364 83.4397 42.0741C83.4397 43.9265 84.3392 46.3283 86.806 46.3283C88.3097 46.3283 89.7362 45.2023 89.7362 42.737H89.7408Z" fill="white"/>
<path d="M93.0208 40.1354C93.0208 38.8233 92.9981 38.6236 92.2076 38.56L91.8941 38.5373C91.8169 38.4873 91.8442 38.2603 91.9214 38.224C92.621 38.2467 93.048 38.2603 93.5478 38.2603C94.0475 38.2603 94.4609 38.2467 95.0878 38.224C95.1605 38.2603 95.1877 38.4873 95.1105 38.5373L94.8107 38.56C94.0702 38.6236 94.0475 38.8233 94.0475 40.1354V44.4895C94.0475 45.2795 94.0838 45.6019 94.311 45.8425C94.4473 45.9787 94.688 46.1285 95.6738 46.1285C96.7369 46.1285 97.0004 46.0786 97.2003 45.9651C97.4501 45.8152 97.7772 45.3658 98.0271 44.7256C98.1043 44.662 98.3405 44.712 98.3405 44.8028C98.3405 44.939 97.9907 46.2148 97.8136 46.5553C97.173 46.5281 95.9873 46.519 94.6971 46.519H93.5432C93.0162 46.519 92.6165 46.5326 91.9168 46.5553C91.8396 46.519 91.8169 46.3192 91.8896 46.242L92.2667 46.2057C92.9935 46.1285 93.0162 45.956 93.0162 44.6439V40.14L93.0208 40.1354Z" fill="white"/>
<path d="M101.748 42.4736C101.748 39.972 103.624 38.056 106.204 38.056C109.098 38.056 110.547 40.1445 110.547 42.3465C110.547 44.8754 108.621 46.7142 106.204 46.7142C103.424 46.7142 101.748 44.7256 101.748 42.4736ZM109.294 42.737C109.294 40.6712 108.38 38.4465 105.991 38.4465C104.687 38.4465 102.997 39.3364 102.997 42.0741C102.997 43.9265 103.897 46.3283 106.363 46.3283C107.867 46.3283 109.294 45.2023 109.294 42.737Z" fill="white"/>
<path d="M113.6 41.7881C113.6 42.1241 113.637 42.1241 114.014 42.1241H114.863C115.377 42.1241 115.776 42.1014 115.926 42.0514C116.063 42.0015 116.162 41.9379 116.24 41.6156L116.353 41.1161C116.417 41.0389 116.63 41.0389 116.68 41.1161C116.68 41.4158 116.63 41.9152 116.63 42.3783C116.63 42.8414 116.68 43.3045 116.68 43.5905C116.63 43.6632 116.444 43.6632 116.353 43.5905L116.226 43.1047C116.176 42.8777 116.063 42.7052 115.826 42.628C115.649 42.5781 115.336 42.5645 114.863 42.5645H114.014C113.637 42.5645 113.6 42.5781 113.6 42.9004V44.6393C113.6 45.9514 113.623 46.1421 114.363 46.2012L114.791 46.2375C114.868 46.2874 114.841 46.5144 114.768 46.5508C114.027 46.5235 113.605 46.5144 113.101 46.5144C112.551 46.5144 112.124 46.5281 111.538 46.5508C111.461 46.5144 111.438 46.3147 111.515 46.2375L111.829 46.2012C112.555 46.1149 112.578 45.9514 112.578 44.6393V40.1354C112.578 38.8233 112.551 38.6463 111.829 38.56L111.629 38.5373C111.551 38.4873 111.579 38.2603 111.651 38.224C112.178 38.2467 112.601 38.2603 113.105 38.2603H115.408C116.208 38.2603 116.935 38.2603 117.098 38.224C117.098 38.8006 117.112 39.3999 117.135 39.8766C117.098 39.9538 116.921 39.9902 116.835 39.913C116.735 39.35 116.585 38.9005 115.958 38.7234C115.681 38.6599 115.268 38.6463 114.745 38.6463H113.982C113.605 38.6463 113.605 38.669 113.605 39.1457V41.7835L113.6 41.7881Z" fill="white"/>
<path d="M125.403 43.1774C125.689 43.7631 125.966 44.3397 126.266 44.889H126.289C126.625 44.3033 126.938 43.6496 127.252 43.0139L128.428 40.6258C129.005 39.4862 129.355 38.8006 129.378 38.224C129.805 38.2603 130.068 38.2603 130.318 38.2603C130.632 38.2603 131.045 38.2467 131.431 38.224C131.508 38.274 131.508 38.4873 131.445 38.5373L131.181 38.56C130.391 38.6462 130.291 38.8733 130.305 39.7495C130.327 41.0753 130.341 43.3908 130.441 45.1932C130.477 45.8198 130.464 46.1421 131.054 46.2057L131.454 46.242C131.531 46.3192 131.518 46.5053 131.431 46.5553C130.918 46.528 130.404 46.519 129.955 46.519C129.505 46.519 128.955 46.5326 128.442 46.5553C128.356 46.4917 128.342 46.3192 128.419 46.242L128.783 46.2057C129.396 46.1421 129.396 45.9424 129.396 45.1433L129.36 39.9266H129.337C129.251 40.0628 128.774 41.0662 128.524 41.552L127.411 43.7404C126.847 44.8436 126.284 46.0195 126.057 46.5916C126.034 46.6279 125.98 46.6416 125.93 46.6416C125.907 46.6416 125.843 46.6279 125.816 46.5916C125.603 45.9287 125.003 44.7029 124.717 44.09L123.59 41.6746C123.327 41.098 123.063 40.4487 122.791 39.8721H122.768C122.718 40.6485 122.682 41.3749 122.641 42.0968C122.604 42.8596 122.554 43.9719 122.554 45.0389C122.554 45.9651 122.632 46.1648 123.118 46.2012L123.595 46.2375C123.681 46.3147 123.667 46.5144 123.581 46.5507C123.154 46.5235 122.668 46.5144 122.191 46.5144C121.791 46.5144 121.341 46.528 120.914 46.5507C120.842 46.4872 120.814 46.301 120.892 46.2375L121.169 46.2012C121.696 46.1376 121.868 46.0513 121.946 45.1751C122.023 44.3487 122.082 43.6586 122.159 42.4237C122.223 41.384 122.273 40.3216 122.295 39.6315C122.323 38.8415 122.223 38.6826 121.455 38.5554L121.255 38.5327C121.191 38.4556 121.205 38.2694 121.305 38.2195C121.682 38.2422 121.982 38.2558 122.295 38.2558C122.582 38.2558 122.922 38.2558 123.336 38.2195C123.286 38.7053 123.599 39.4816 123.985 40.2853L125.412 43.1774H125.403Z" fill="white"/>
<path d="M133.403 40.1354C133.403 38.8369 133.376 38.6463 132.64 38.56L132.44 38.5373C132.363 38.4873 132.39 38.2603 132.462 38.224C133.003 38.2467 133.426 38.2603 133.939 38.2603H136.292C137.092 38.2603 137.832 38.2603 137.982 38.224C138.059 38.4374 138.132 39.3364 138.182 39.8857C138.132 39.9629 137.932 39.9856 137.869 39.9084C137.682 39.3182 137.569 38.8823 136.919 38.7189C136.656 38.6553 136.256 38.6417 135.706 38.6417H134.807C134.43 38.6417 134.43 38.6644 134.43 39.1411V41.6428C134.43 41.9924 134.466 41.9924 134.843 41.9924H135.57C136.097 41.9924 136.483 41.9697 136.633 41.9152C136.783 41.8653 136.869 41.7881 136.933 41.4793L137.033 40.9663C137.096 40.8891 137.31 40.8891 137.36 40.9799C137.36 41.2796 137.31 41.7699 137.31 42.2421C137.31 42.6916 137.36 43.1683 137.36 43.4453C137.31 43.5315 137.096 43.5315 137.033 43.4589L136.919 42.9731C136.869 42.7461 136.783 42.5599 136.533 42.4963C136.356 42.4464 136.056 42.4328 135.57 42.4328H134.843C134.466 42.4328 134.43 42.4464 134.43 42.7688V44.5349C134.43 45.1978 134.466 45.6246 134.666 45.8379C134.816 45.9878 135.079 46.124 136.179 46.124C137.142 46.124 137.505 46.074 137.782 45.9378C138.009 45.8107 138.346 45.3748 138.673 44.7256C138.759 44.662 138.936 44.6983 138.986 44.8119C138.9 45.2477 138.586 46.2148 138.423 46.5508C137.296 46.5235 136.183 46.5144 135.07 46.5144H133.943C133.407 46.5144 132.98 46.5281 132.24 46.5508C132.163 46.5144 132.14 46.3147 132.213 46.2375L132.626 46.2012C133.339 46.1376 133.403 45.9514 133.403 44.6393V40.1354Z" fill="white"/>
<path d="M140.254 39.8857C140.254 39.0095 140.19 38.7461 139.663 38.6735L139.386 38.6372C139.286 38.5736 139.272 38.3738 139.4 38.3239C140.463 38.2603 141.476 38.224 142.543 38.224C143.611 38.224 144.483 38.3012 145.296 38.6008C146.986 39.2138 147.836 40.6394 147.836 42.292C147.836 43.9447 147.073 45.2432 145.646 46.0195C144.833 46.4554 143.806 46.6189 142.843 46.6189C142.044 46.6189 141.24 46.519 140.803 46.519C140.276 46.519 139.827 46.5326 139.241 46.5553C139.163 46.519 139.141 46.3192 139.218 46.242L139.504 46.2057C140.231 46.1058 140.254 45.956 140.254 44.6439V39.8903V39.8857ZM141.28 44.3488C141.28 45.0116 141.317 45.4112 141.53 45.7108C141.807 46.0967 142.28 46.2239 143.07 46.2239C145.501 46.2239 146.587 44.6348 146.587 42.3102C146.587 40.9345 145.923 38.6054 142.643 38.6054C141.903 38.6054 141.503 38.7053 141.403 38.7825C141.303 38.8551 141.276 39.1684 141.276 39.7314V44.3488H141.28Z" fill="white"/>
<path d="M149.739 40.1581C149.739 38.8324 149.712 38.619 148.976 38.5554L148.663 38.5327C148.585 38.4828 148.613 38.2558 148.685 38.2195C149.312 38.2422 149.739 38.2558 150.262 38.2558C150.784 38.2558 151.188 38.2422 151.815 38.2195C151.893 38.2558 151.915 38.4828 151.838 38.5327L151.525 38.5554C150.784 38.619 150.761 38.8324 150.761 40.1581V44.6121C150.761 45.9378 150.784 46.1149 151.525 46.2012L151.838 46.2375C151.915 46.2874 151.888 46.5144 151.815 46.5507C151.188 46.5235 150.766 46.5144 150.262 46.5144C149.735 46.5144 149.312 46.528 148.685 46.5507C148.613 46.5144 148.585 46.3147 148.663 46.2375L148.976 46.2012C149.717 46.1149 149.739 45.9378 149.739 44.6121V40.1581Z" fill="white"/>
<path d="M154.032 39.123C154.946 38.4102 156.109 38.0606 157.412 38.0606C158.089 38.0606 159.039 38.1968 159.629 38.3602C159.779 38.3965 159.866 38.4238 159.979 38.4102C159.993 38.6962 160.056 39.4862 160.156 40.2489C160.093 40.3352 159.906 40.3488 159.82 40.2762C159.634 39.4272 159.071 38.451 157.253 38.451C155.336 38.451 153.71 39.6633 153.71 42.2557C153.71 44.8482 155.373 46.3328 157.426 46.3328C159.039 46.3328 159.756 45.284 160.043 44.544C160.129 44.4804 160.32 44.5077 160.37 44.5939C160.283 45.2432 159.956 46.0695 159.77 46.3101C159.62 46.3328 159.47 46.3873 159.334 46.4372C159.057 46.5371 158.157 46.7233 157.358 46.7233C156.231 46.7233 155.154 46.4963 154.241 45.8833C153.242 45.1932 152.465 44.0582 152.465 42.4419C152.465 41.0526 153.092 39.863 154.041 39.1275L154.032 39.123Z" fill="white"/>
<path d="M162.069 40.1581C162.069 38.8324 162.042 38.619 161.306 38.5554L160.992 38.5327C160.915 38.4828 160.942 38.2558 161.015 38.2195C161.642 38.2422 162.069 38.2558 162.591 38.2558C163.114 38.2558 163.518 38.2422 164.145 38.2195C164.222 38.2558 164.245 38.4828 164.168 38.5327L163.854 38.5554C163.114 38.619 163.091 38.8324 163.091 40.1581V44.6121C163.091 45.9378 163.114 46.1149 163.854 46.2012L164.168 46.2375C164.245 46.2874 164.218 46.5144 164.145 46.5507C163.518 46.5235 163.096 46.5144 162.591 46.5144C162.064 46.5144 161.642 46.528 161.015 46.5507C160.942 46.5144 160.915 46.3147 160.992 46.2375L161.306 46.2012C162.046 46.1149 162.069 45.9378 162.069 44.6121V40.1581Z" fill="white"/>
<path d="M172.885 44.3896C172.885 44.7664 172.885 46.2556 172.922 46.578C172.899 46.6552 172.822 46.7142 172.686 46.7142C172.536 46.5008 172.172 46.0649 171.082 44.8255L168.179 41.5202C167.843 41.1343 166.989 40.1082 166.725 39.8312H166.703C166.653 39.9811 166.639 40.2671 166.639 40.6439V43.3726C166.639 43.9583 166.662 45.5882 166.866 45.9605C166.952 46.0967 167.193 46.1739 167.502 46.1966L167.888 46.2329C167.965 46.3328 167.952 46.4826 167.866 46.5462C167.302 46.519 166.866 46.5099 166.403 46.5099C165.876 46.5099 165.54 46.5235 165.099 46.5462C165.013 46.4826 164.999 46.3101 165.076 46.2329L165.412 46.1966C165.699 46.1694 165.898 46.0831 165.962 45.9469C166.139 45.4974 166.126 43.9719 166.126 43.3681V39.7541C166.126 39.4045 166.112 39.1411 165.848 38.8551C165.671 38.6826 165.371 38.5918 165.072 38.5554L164.858 38.5327C164.781 38.4556 164.781 38.2694 164.881 38.2195C165.408 38.2558 166.071 38.2558 166.294 38.2558C166.494 38.2558 166.707 38.2422 166.871 38.2195C167.12 38.8551 168.611 40.5077 169.01 40.9708L170.223 42.3329C171.073 43.309 171.7 43.9992 172.29 44.5985H172.313C172.363 44.5349 172.363 44.3351 172.363 44.0718V41.3931C172.363 40.8074 172.349 39.1775 172.113 38.8052C172.036 38.6916 171.836 38.619 171.336 38.5554L171.123 38.5327C171.036 38.4556 171.046 38.2558 171.145 38.2195C171.722 38.2422 172.145 38.2558 172.622 38.2558C173.163 38.2558 173.485 38.2422 173.912 38.2195C174.012 38.283 174.012 38.4556 173.935 38.5327L173.758 38.5554C173.358 38.619 173.108 38.7189 173.058 38.8188C172.845 39.2683 172.872 40.821 172.872 41.3976V44.3896H172.885Z" fill="white"/>
<path d="M175.802 40.1354C175.802 38.8369 175.775 38.6463 175.039 38.56L174.839 38.5373C174.762 38.4873 174.789 38.2603 174.862 38.224C175.402 38.2467 175.825 38.2603 176.338 38.2603H178.691C179.491 38.2603 180.231 38.2603 180.381 38.224C180.458 38.4374 180.531 39.3364 180.581 39.8857C180.531 39.9629 180.331 39.9856 180.268 39.9084C180.081 39.3182 179.968 38.8823 179.318 38.7189C179.055 38.6553 178.655 38.6417 178.105 38.6417H177.206C176.829 38.6417 176.829 38.6644 176.829 39.1411V41.6428C176.829 41.9924 176.865 41.9924 177.242 41.9924H177.969C178.496 41.9924 178.882 41.9697 179.032 41.9152C179.182 41.8653 179.268 41.7881 179.332 41.4793L179.432 40.9663C179.495 40.8891 179.709 40.8891 179.759 40.9799C179.759 41.2796 179.709 41.7699 179.709 42.2421C179.709 42.6916 179.759 43.1683 179.759 43.4453C179.709 43.5315 179.495 43.5315 179.432 43.4589L179.318 42.9731C179.268 42.7461 179.182 42.5599 178.932 42.4963C178.755 42.4464 178.455 42.4328 177.969 42.4328H177.242C176.865 42.4328 176.829 42.4464 176.829 42.7688V44.5349C176.829 45.1978 176.865 45.6246 177.065 45.8379C177.215 45.9878 177.478 46.124 178.578 46.124C179.541 46.124 179.904 46.074 180.181 45.9378C180.409 45.8107 180.745 45.3748 181.072 44.7256C181.158 44.662 181.335 44.6983 181.385 44.8119C181.299 45.2477 180.985 46.2148 180.822 46.5508C179.695 46.5235 178.582 46.5144 177.469 46.5144H176.343C175.807 46.5144 175.38 46.5281 174.639 46.5508C174.562 46.5144 174.539 46.3147 174.612 46.2375L175.025 46.2012C175.738 46.1376 175.802 45.9514 175.802 44.6393V40.1354Z" fill="white"/>
<path d="M106.391 26.1471C105.073 28.8576 104.256 28.9302 102.166 28.9302C100.412 28.9302 99.958 28.7395 99.6445 28.3082C99.3583 27.8996 99.2584 27.1323 99.2584 26.029V23.1732C99.2584 22.4513 99.2811 22.4286 99.9307 22.4286H101.589C102.838 22.4286 103.102 22.6193 103.365 23.7725L103.483 24.3718C103.651 24.5898 104.251 24.5625 104.369 24.3491C104.324 23.5818 104.296 22.7192 104.296 21.8066C104.296 20.894 104.319 20.0314 104.369 19.2641C104.251 19.0462 103.651 19.0462 103.483 19.2414L103.365 19.8407C103.102 20.9939 102.838 21.1619 101.589 21.1619H99.9307C99.2811 21.1619 99.2584 21.112 99.2584 20.4446V16.2449C99.2584 15.3595 99.2584 15.3096 100.049 15.3096H101.97C103.147 15.3096 103.865 15.6002 104.324 16.0542C104.637 16.3902 104.973 17.1075 105.237 17.9474C105.478 18.1654 106.027 18.1154 106.127 17.8521C106.009 16.2449 105.841 14.5196 105.814 14.1337C105.5 14.1791 104.133 14.2063 102.597 14.2063H97.5093C96.3554 14.2063 95.1834 14.1836 94.0522 14.1337C93.8114 14.279 93.7887 14.8283 94.0067 14.9736L94.6064 15.0917C95.6876 15.2823 95.833 15.4503 95.833 17.6342V26.5829C95.833 27.718 95.7921 28.3127 95.6059 28.6396C95.5241 28.7486 97.046 30.0335 97.1686 30.038C97.314 30.038 97.4639 30.038 97.6093 30.038H100.73C102.697 30.038 105.001 30.0607 106.273 30.1107C106.609 29.4614 107.186 27.5182 107.281 26.2742C107.186 25.9881 106.586 25.8883 106.391 26.1561V26.1471Z" fill="white"/>
</g>
<defs>
<clipPath id="clip0_2037_58">
<rect width="261" height="59" fill="white"/>
</clipPath>
</defs>
</svg>
