<svg id="brandLogo" xmlns="http://www.w3.org/2000/svg" viewBox="0 0 1917.52 663.33" style="fill:#1E344B;"><path d="M600.77,706.61c-8.67,7.43-14.86,4.95-14.86,4.95-8.67-3.1-3.1-18.58-3.1-18.58,5.58-18.58,30.35-97.24,46.45-147.41,0,0,7.44-22.29,16.11-51.4,9.29-31,3.71-52.65,3.71-52.65-7.43-24.15-28.49-37.78-50.78-42.11-14.87-3.1-31-3.1-42.74-2.48-37.16,2.48-67.51,24.77-67.51,24.77-19.2,13.63-22.91,18.58-22.91,18.58L545,205.55H384.62v16.72h22.3l-10.53,33.45c-46.45-50.79-161.65-48.93-161.65-48.93H2.48v16.1H70V735.1H0v16.1H408.77V735.1H364.18l87.95-258.27s45.83-51.41,81.13-58.22c0,0,14.87-5,6.2,21.67-9.91,31-49.55,157.94-67.51,214.92,0,0-9.29,29.11-8.05,48.93,0,0,0,42.73,50.16,50.17,56.37,8.05,84.86-16.73,149.27-89.19l.62-27.87C633,676.88,610.06,698.55,600.77,706.61ZM173.42,222.89c60.08-11.15,94.14,11.77,94.14,11.77s54.5,27.25,45.83,124.49c0,0,0,52-22.91,83,0,0-20.44,26.63-63.8,32.83-14.24,1.86-53.26.62-53.26.62V222.89Zm-.62,270.66c91.66,0,138.12-12.39,153-17.34l-83,258.89h-70ZM345.6,735.1H260.75l84.85-267c52-21,70.61-58.83,70.61-58.83,36.54-61.94,5.57-119.54-7.44-138.74l16.11-50.17h96Zm202.53,3.09c-5,1.24-39.64,3.72-55.74-11.14-16.73-15.49-10.53-42.74-5.58-60.08,5.58-19.2,18-57,18-57,18-60.08,44.6-140.6,50.17-161.65,8-27.26,4.34-34.69,4.34-34.69s15.48-3.71,40.87,3.1c24.78,6.81,39.64,25.39,27.26,72.46L574.14,661.39,568,680.59c-3.1,9.91-6.2,24.16-3.1,31.59,4.34,11.15,11.15,13.63,11.15,13.63C568,732.62,553.08,737,548.13,738.19Z" transform="translate(0 -205.55)"/><path d="M1885.32,735.1,1734.81,206.79h-52.64L1531.05,735.1,1384.88,206.79h-24.16l-96,338.16L1174.3,206.79h-23.54l-124.49,428s-2.48-91.66-29.11-121.39c-26.63-29.11-57-41.5-125.73-52,0,0-13.62.62-9.91-6.81,0,0,58.84-1.86,101-32.83,0,0,62.55-45.83,35.92-132.54-16.72-53.26-98.48-74.32-98.48-74.32C862.14,204.31,781,207.41,781,207.41H609.45v16.1h53.26l.62,423.64-.62,13.62v75h-54.5v16.1h224.2v-16.1H768V465.06h49.55s77.42-7.43,87.33,81.13-5,195.1,89.18,210,118.3-31.58,118.3-31.58l-4.95-8.05s-29.11,30.34-50.79,23.53c-18-5.57-26-23.53-27.87-58.84l89.8-295.43,103.44,371L1327.28,387,1420.8,735.1H1375v16.1h205.62V735.1h-32.2l27.25-94.76h175.28l24.15,94.76h-44v16.1h186.42V735.1ZM768.62,453.91V221s30.35-3.09,57,1.24c0,0,55.74.62,66.27,99.1.62,8.05,1.24,16.72,1.24,26,.62,48.93-14.25,95.38-58.22,104.05C834.27,451.43,798.35,459.48,768.62,453.91Zm820,139.35L1663,333.75l75.56,259.51Z" transform="translate(0 -205.55)"/><path d="M44,867l-16.1-26.63H8.67V867H3.1V798.89H22.3c15.48,0,25.39,8.05,25.39,21.06,0,9.91-5.57,16.72-14.86,19.82l16.72,27.87H44Zm-21-31.59c12.38,0,19.2-6.81,19.2-16.1,0-9.91-7.44-15.48-19.2-15.48H8.67v31.58Z" transform="translate(0 -205.55)"/><path d="M124.49,861.45V867H79.28V798.89h44.59v5.57h-39v24.16h31.59v5H84.85v28.49h39.64Z" transform="translate(0 -205.55)"/><path d="M190.14,816.85c-1.24-9.29-9.29-14.86-18.58-14.86-9.91,0-17.34,5-17.34,13s9.91,11.15,19.2,13.63,22.92,6.19,22.92,20.44c0,11.15-9.91,19.82-24.78,19.82s-23.53-8.67-25.39-19.82l5.57-1.24c.62,8.67,8,16.1,19.82,16.1,11.15,0,18.58-6.19,18.58-14.24,0-11.15-13-13.63-22.29-16.11C159.79,831.1,148,828,148,816.23c0-10.53,9.91-18,23.53-18,12.39,0,21.68,7.43,24.16,18Z" transform="translate(0 -205.55)"/><path d="M270,861.45V867H224.83V798.89h44.59v5.57h-39v24.16H262v5H230.4v28.49H270Z" transform="translate(0 -205.55)"/><path d="M344.36,847.2H308.44L299.77,867h-6.2l30.35-68.75h5L359.23,867H353Zm-2.48-5L329.5,813.14c-1.24-3.72-3.1-8.06-3.1-8.06h0s-1.86,4.34-3.1,8.06l-12.38,29.11Z" transform="translate(0 -205.55)"/><path d="M425.5,867l-16.11-26.63h-18V867h-5.57V798.89h19.2c15.48,0,25.39,8.05,25.39,21.06,0,9.91-5.57,16.72-14.86,19.82l16.72,27.87H425.5Zm-20.44-31.59c12.39,0,19.2-6.81,19.2-16.1,0-9.91-7.43-15.48-19.2-15.48H390.81v31.58Z" transform="translate(0 -205.55)"/><path d="M514.68,816.85c-4.95-8.67-14.86-13.62-25.39-13.62-16.72,0-29.73,12.38-29.73,30.34s13,29.73,29.73,29.73c11.77,0,21.68-6.19,26.63-16.1l5.58,1.86c-5.58,12.39-18,19.82-32.21,19.82-19.82,0-35.3-14.87-35.3-35.31a34.9,34.9,0,0,1,35.3-35.3c13.63,0,24.77,6.81,31,18Z" transform="translate(0 -205.55)"/><path d="M599.54,798.89v68.75H594V834.81H553.08v32.83h-5.57V798.89h5.57v29.73H594V798.89Z" transform="translate(0 -205.55)"/><path d="M850.37,798.89c15.49,0,25.4,8.05,25.4,21.68,0,13-9.29,21.68-25.4,21.68H836.75v25.39h-5.58V798.89Zm0,37.16c12.39,0,19.2-6.19,19.2-16.1,0-10.53-7.43-16.1-19.2-16.1H836.75v32.2Z" transform="translate(0 -205.55)"/><path d="M943.28,867l-16.11-26.63h-18V867h-5.57V798.89h19.2c15.48,0,25.39,8.05,25.39,21.06,0,9.91-5.57,16.72-14.86,19.82l16.72,27.87h-6.81Zm-20.44-31.59c12.39,0,19.2-6.81,19.2-16.1,0-9.91-7.43-15.48-19.2-15.48H908.59v31.58Z" transform="translate(0 -205.55)"/><path d="M1007.07,797c19.82,0,35.3,14.87,35.3,35.31a34.9,34.9,0,0,1-35.3,35.3c-19.82,0-35.3-14.87-35.3-35.3A35.29,35.29,0,0,1,1007.07,797Zm0,65.65c16.72,0,29.73-12.38,29.73-30.34s-13-30.35-29.73-30.35-29.73,12.38-29.73,30.35C977.34,850.92,990.35,862.68,1007.07,862.68Z" transform="translate(0 -205.55)"/><path d="M1130.94,855.87c-3.09,3.72-11.77,13-26.63,13-19.82,0-35.3-14.87-35.3-35.31a34.9,34.9,0,0,1,35.3-35.3c14.24.62,25.39,7.43,31,18l-5.58,1.24c-5-8.67-14.86-13.62-25.39-13.62-16.72,0-29.73,12.38-29.73,30.34s13,30.35,29.73,30.35c14.24,0,24.15-8.67,26.63-14.86V837.29h-21.68v-4.95h26.64V867h-5V855.87Z" transform="translate(0 -205.55)"/><path d="M1206.5,867l-16.1-26.63h-18V867h-5.58V798.89h19.2c15.49,0,25.4,8.05,25.4,21.06,0,9.91-5.58,16.72-14.87,19.82l16.73,27.87h-6.82Zm-20.44-31.59c12.39,0,19.2-6.81,19.2-16.1,0-9.91-7.43-15.48-19.2-15.48h-14.24v31.58Z" transform="translate(0 -205.55)"/><path d="M1287.64,861.45V867h-45.21V798.89H1287v5.57h-39v24.16h31.59v5H1248v28.49h39.64Z" transform="translate(0 -205.55)"/><path d="M1352.67,816.85c-1.24-9.29-9.29-14.86-18.58-14.86-9.91,0-17.34,5-17.34,13s9.91,11.15,19.2,13.63,22.91,6.19,22.91,20.44c0,11.15-9.91,19.82-24.77,19.82s-23.54-8.67-25.39-19.82l5.57-1.24c.62,8.67,8,16.1,19.82,16.1,11.15,0,18.58-6.19,18.58-14.24,0-11.15-13-13.63-22.3-16.11-8-2.47-19.82-5.57-19.82-17.34,0-10.53,9.91-18,23.54-18,12.39,0,21.68,7.43,24.15,18Z" transform="translate(0 -205.55)"/><path d="M1425.75,816.85c-1.23-9.29-9.29-14.86-18.58-14.86-9.91,0-17.34,5-17.34,13s9.91,11.15,19.2,13.63,22.92,6.19,22.92,20.44c0,11.15-9.91,19.82-24.78,19.82s-23.53-8.67-25.39-19.82l5.57-1.24c.62,8.67,8.06,16.1,19.82,16.1,11.15,0,18.58-6.19,18.58-14.24,0-11.15-13-13.63-22.29-16.11-8-2.47-19.82-5.57-19.82-17.34,0-10.53,9.91-18,23.53-18,12.39,0,21.68,7.43,24.16,18Z" transform="translate(0 -205.55)"/><path d="M1670.4,798.89v68.75h-5.57V834.81H1624v32.83h-5.58V798.89H1624v29.73h40.88V798.89Z" transform="translate(0 -205.55)"/><path d="M1734.81,797c19.82,0,35.31,14.87,35.31,35.31a34.9,34.9,0,0,1-35.31,35.3c-19.82,0-35.3-14.87-35.3-35.3C1698.89,812.52,1715,797,1734.81,797Zm0,65.65c16.73,0,29.73-12.38,29.73-30.34s-13-30.35-29.73-30.35-29.73,12.38-29.73,30.35C1705.08,850.92,1718.09,862.68,1734.81,862.68Z" transform="translate(0 -205.55)"/><path d="M1817.81,798.89c15.48,0,25.39,8.05,25.39,21.68,0,13-9.29,21.68-25.39,21.68h-13.63v25.39h-5.57V798.89Zm0,37.16c12.38,0,19.2-6.19,19.2-16.1,0-10.53-7.44-16.1-19.2-16.1h-13.63v32.2Z" transform="translate(0 -205.55)"/><path d="M1915.66,861.45V867h-45.21V798.89h44.6v5.57h-39v24.16h31.58v5H1876v28.49h39.63Z" transform="translate(0 -205.55)"/><path d="M737.65,836.05A21.06,21.06,0,1,1,716.59,815,21.28,21.28,0,0,1,737.65,836.05Z" transform="translate(0 -205.55)"/><path d="M1546.53,836.05A21.06,21.06,0,1,1,1525.47,815,20.88,20.88,0,0,1,1546.53,836.05Z" transform="translate(0 -205.55)"/></svg>