<?xml version="1.0" standalone="no"?>
<!DOCTYPE svg PUBLIC "-//W3C//DTD SVG 20010904//EN"
 "http://www.w3.org/TR/2001/REC-SVG-20010904/DTD/svg10.dtd">
<svg version="1.0" xmlns="http://www.w3.org/2000/svg"
 width="1245.000000pt" height="654.000000pt" viewBox="0 0 1245.000000 654.000000"
 preserveAspectRatio="xMidYMid meet">

<g transform="translate(0.000000,654.000000) scale(0.100000,-0.100000)"
fill="#000000" stroke="none">
<path d="M1180 4586 c0 -65 -14 -89 -100 -175 -115 -116 -134 -155 -128 -269
4 -58 12 -103 26 -134 20 -46 23 -48 63 -48 35 0 40 3 34 18 -13 34 -17 72
-11 97 5 21 12 25 41 25 43 0 50 -20 30 -86 -8 -27 -15 -51 -15 -54 0 -3 18
-4 41 -2 34 4 44 10 67 45 25 37 27 50 29 151 1 60 7 123 13 139 22 66 6 153
-51 270 -25 52 -39 60 -39 23z m-25 -363 c-5 -29 -9 -33 -39 -33 -18 0 -35 3
-39 6 -8 9 16 54 50 95 l28 33 3 -34 c2 -18 1 -49 -3 -67z"/>
<path d="M4446 4365 c-151 -38 -308 -152 -384 -278 -62 -103 -85 -187 -86
-322 -1 -138 11 -197 61 -303 65 -138 211 -255 369 -296 81 -21 295 -21 383
-1 205 49 372 211 427 415 21 79 24 270 5 350 -46 195 -188 348 -386 416 -67
23 -100 28 -205 30 -87 3 -143 -1 -184 -11z m269 -90 c64 -31 133 -107 170
-188 52 -114 68 -212 62 -391 -5 -175 -26 -257 -85 -346 -106 -159 -326 -172
-459 -27 -97 105 -145 264 -144 478 0 248 82 423 224 479 66 25 173 23 232 -5z"/>
<path d="M8654 4361 c-281 -76 -463 -310 -464 -597 0 -199 59 -347 189 -466
117 -108 238 -149 441 -149 144 0 209 14 318 67 178 87 287 250 311 466 36
322 -135 593 -426 674 -92 26 -282 28 -369 5z m284 -92 c97 -48 165 -150 209
-309 25 -91 25 -357 0 -450 -37 -136 -98 -223 -186 -264 -62 -28 -178 -28
-241 0 -95 43 -179 161 -215 299 -74 289 -13 600 137 703 59 40 93 50 169 51
54 1 76 -4 127 -30z"/>
<path d="M10963 4365 c-192 -52 -296 -198 -264 -371 23 -125 97 -210 264 -304
175 -98 240 -176 239 -285 -1 -86 -50 -152 -130 -175 -50 -14 -69 -13 -132 6
-71 21 -173 121 -215 211 -30 64 -43 77 -70 67 -33 -13 -6 -246 33 -294 43
-52 240 -88 384 -70 170 20 276 83 336 199 29 57 32 71 32 150 0 127 -18 171
-104 256 -47 46 -99 86 -154 115 -145 79 -205 122 -237 175 -75 122 3 255 149
255 87 0 155 -52 218 -165 27 -48 39 -60 58 -60 25 0 25 1 24 90 -1 50 -6 109
-13 132 -10 37 -16 44 -50 53 -124 33 -276 39 -368 15z"/>
<path d="M5115 4360 l-90 -5 60 -42 60 -43 130 0 c144 0 192 -9 248 -48 110
-74 138 -278 56 -392 -36 -49 -72 -66 -174 -81 -73 -11 -75 -12 -76 -40 -1
-16 -2 -34 -3 -41 -1 -7 13 -15 30 -18 17 -4 36 -10 43 -14 6 -4 53 -69 103
-144 125 -187 200 -283 299 -377 212 -201 506 -352 809 -414 283 -59 614 -60
950 -5 370 61 900 263 900 344 0 10 -5 22 -10 25 -6 4 -59 -14 -119 -39 -201
-85 -463 -158 -731 -203 -150 -25 -620 -26 -766 0 -287 49 -521 137 -727 274
-138 92 -315 289 -444 495 -73 116 -72 110 -14 147 65 42 127 111 154 169 33
73 30 190 -6 264 -44 89 -115 142 -233 171 -64 16 -302 25 -449 17z"/>
<path d="M2492 4353 c-17 -3 -22 -10 -20 -25 2 -15 19 -26 63 -42 94 -33 98
-45 90 -291 -6 -199 -29 -569 -41 -655 -9 -67 -26 -87 -90 -106 -47 -13 -55
-19 -52 -37 3 -22 5 -22 218 -22 214 0 215 0 218 22 3 17 -3 24 -25 29 -147
33 -137 0 -130 427 3 194 9 361 13 371 9 22 6 28 196 -399 66 -148 133 -304
148 -345 46 -124 50 -130 81 -130 19 0 34 8 43 23 8 12 57 119 109 237 52 118
139 312 193 430 l99 215 3 -383 c1 -242 -1 -390 -8 -402 -9 -17 -39 -30 -102
-44 -21 -5 -28 -12 -28 -31 l0 -25 265 0 265 0 0 24 c0 25 -6 29 -66 41 -54
11 -66 34 -75 143 -4 53 -10 261 -14 462 -6 355 -6 366 14 397 16 25 33 36 83
51 49 14 64 23 66 39 4 29 -18 31 -228 25 l-179 -5 -30 -92 c-26 -81 -208
-491 -293 -660 -29 -56 -31 -58 -45 -40 -17 23 -175 344 -256 521 -51 111 -78
187 -92 257 l-5 27 -183 -1 c-100 -1 -192 -4 -205 -6z"/>
<path d="M5898 4353 c-29 -3 -38 -9 -38 -23 0 -23 21 -36 73 -45 74 -14 72 2
73 -546 l1 -487 47 -41 47 -41 343 0 344 0 10 28 c24 58 52 179 52 220 0 41
-1 43 -27 40 -20 -2 -34 -15 -56 -53 -34 -60 -81 -111 -122 -133 -24 -14 -58
-17 -167 -17 -123 0 -139 2 -165 21 -43 32 -53 91 -51 289 l3 170 112 3 c139
3 167 -7 183 -71 6 -23 13 -50 16 -59 4 -12 15 -18 35 -18 l29 0 0 195 0 195
-30 0 c-25 0 -30 -5 -39 -37 -6 -21 -11 -43 -11 -49 0 -6 -11 -21 -25 -34 -22
-20 -37 -24 -128 -28 -158 -7 -148 -22 -145 226 l3 207 138 3 c118 2 144 0
181 -17 47 -20 85 -64 108 -126 18 -45 37 -61 63 -51 16 6 17 16 11 104 -4 53
-9 116 -13 140 l-5 42 -407 -2 c-223 -1 -423 -3 -443 -5z"/>
<path d="M7012 4353 c-100 -4 -103 -4 -100 -26 2 -16 14 -25 49 -34 89 -25 84
5 87 -507 4 -546 6 -531 -95 -556 -36 -9 -43 -15 -43 -35 l0 -25 275 0 275 0
0 24 c0 26 -8 30 -73 42 -23 4 -45 16 -57 32 -19 24 -20 38 -18 246 l3 221
255 0 255 0 0 -226 c0 -257 -1 -261 -79 -276 -35 -7 -41 -13 -44 -36 l-3 -27
266 0 266 0 -3 27 c-3 24 -9 29 -48 36 -25 5 -54 17 -65 28 -19 19 -20 33 -20
505 l0 486 22 18 c12 9 40 20 62 24 39 6 61 32 46 56 -8 14 -532 14 -540 0
-16 -26 7 -49 61 -60 81 -17 84 -27 84 -258 0 -188 0 -190 -22 -196 -30 -8
-446 -8 -475 0 -23 6 -23 7 -23 204 0 226 2 231 80 253 38 11 45 17 45 37 l0
25 -160 1 c-88 0 -206 -1 -263 -3z"/>
<path d="M9637 4353 c-197 -3 -198 -4 -195 -25 2 -17 15 -26 56 -38 31 -9 58
-23 65 -35 7 -13 14 -141 19 -375 4 -195 12 -384 18 -420 30 -179 156 -285
366 -311 157 -19 318 13 408 82 133 103 165 228 166 644 0 205 13 337 34 371
9 12 39 31 68 42 43 16 53 24 53 43 0 22 -5 24 -60 27 -33 2 -133 1 -223 -3
-158 -7 -163 -8 -160 -28 2 -16 17 -25 64 -39 33 -10 68 -26 77 -36 32 -35 38
-123 35 -440 -3 -256 -7 -316 -21 -359 -25 -75 -75 -143 -131 -178 -46 -28
-56 -30 -145 -30 -113 0 -156 18 -215 87 -67 78 -70 98 -73 518 -3 290 0 381
9 400 9 17 30 29 68 41 42 12 56 21 58 38 3 16 -2 21 -20 21 -13 0 -45 2 -73
3 -27 2 -139 2 -248 0z"/>
<path d="M11457 4353 c-13 -12 -7 -42 11 -52 9 -5 34 -12 54 -16 75 -14 73 0
76 -439 2 -215 1 -429 -3 -475 -9 -102 -26 -125 -101 -135 -76 -11 -84 -15
-84 -42 l0 -24 485 0 485 0 11 28 c23 60 49 170 51 217 3 45 1 50 -19 53 -18
3 -29 -7 -52 -45 -57 -91 -76 -114 -121 -141 -43 -26 -52 -27 -170 -27 -213 0
-221 9 -228 262 -2 94 -2 183 2 197 6 26 7 26 117 26 144 0 163 -9 186 -90 15
-55 19 -60 45 -60 l28 0 0 195 0 195 -28 0 c-26 0 -30 -5 -45 -60 -12 -41 -24
-63 -39 -71 -32 -17 -219 -25 -246 -10 -21 11 -22 17 -22 209 0 108 4 203 9
210 7 11 41 13 159 10 150 -3 150 -3 189 -33 24 -19 50 -56 71 -98 27 -57 36
-67 58 -67 l27 0 -7 123 c-4 67 -10 132 -13 145 l-5 22 -437 0 c-241 0 -441
-3 -444 -7z"/>
<path d="M593 4248 c-11 -13 -31 -43 -43 -68 -12 -25 -45 -82 -72 -128 -28
-46 -48 -85 -46 -87 2 -3 38 21 78 52 41 31 88 62 105 69 34 14 45 10 185 -75
54 -33 95 -51 115 -51 l32 0 -18 53 c-10 28 -18 66 -19 83 0 17 -8 38 -17 46
-31 27 -235 128 -258 128 -12 0 -31 -10 -42 -22z"/>
<path d="M1570 4253 c-8 -2 -72 -32 -142 -66 l-126 -61 -26 -79 c-14 -43 -26
-82 -26 -87 0 -5 24 -6 53 -3 37 4 69 17 112 44 69 44 125 69 154 69 11 0 60
-34 107 -75 48 -41 89 -73 91 -71 5 5 -51 144 -83 209 -48 95 -81 130 -114
120z"/>
<path d="M725 3981 c-152 -55 -274 -133 -393 -253 -139 -140 -221 -277 -279
-464 -26 -84 -27 -100 -27 -284 0 -184 1 -200 27 -285 124 -405 442 -693 847
-766 91 -16 300 -14 386 5 347 75 626 299 765 615 68 154 82 223 83 416 1 187
-11 254 -74 392 -96 212 -311 436 -562 585 -58 34 -74 40 -96 32 -28 -10 -42
-34 -20 -34 26 0 172 -77 233 -122 260 -193 403 -495 380 -807 -23 -327 -216
-616 -510 -764 -70 -35 -207 -76 -276 -84 -94 -9 -91 -17 -88 246 l3 225 -32
13 -32 13 0 -225 c0 -266 -2 -275 -69 -275 -109 0 -311 71 -428 151 -109 75
-227 205 -296 330 -39 70 -84 209 -98 300 -15 106 -6 270 21 369 45 162 155
342 276 449 77 69 189 137 286 173 48 18 88 36 88 39 0 6 -46 29 -58 29 -4 -1
-29 -9 -57 -19z"/>
<path d="M930 3901 c0 -33 24 -68 52 -77 37 -10 51 -45 68 -168 6 -39 12 -72
14 -74 3 -2 22 -6 43 -9 l38 -5 12 83 c6 46 20 105 32 131 17 41 24 47 53 50
30 3 33 6 36 41 l3 37 -175 0 c-97 0 -176 -4 -176 -9z"/>
<path d="M784 3759 c-83 -35 -122 -72 -131 -122 -5 -34 -2 -41 38 -81 50 -50
120 -76 203 -76 28 0 96 -6 151 -14 198 -26 281 -93 246 -199 -14 -43 -45 -71
-93 -87 -37 -11 -38 -13 -38 -61 0 -27 4 -49 10 -49 25 0 122 52 160 86 128
115 96 286 -65 354 -64 27 -124 39 -304 60 -94 11 -177 23 -186 26 -20 8 -20
58 0 74 10 8 49 13 106 14 87 1 92 2 116 30 29 35 22 45 -45 63 -69 18 -89 16
-168 -18z"/>
<path d="M1055 3442 c-7 -8 -6 -430 2 -529 6 -80 7 -82 36 -93 16 -5 34 -10
38 -10 5 0 9 137 9 304 0 231 -3 306 -12 313 -15 12 -65 22 -73 15z"/>
<path d="M947 3119 c-125 -35 -183 -77 -193 -140 -13 -79 36 -158 130 -213 23
-13 95 -45 160 -72 140 -56 186 -94 186 -150 0 -42 -23 -89 -51 -104 -25 -14
-44 -59 -30 -73 13 -13 90 33 129 77 60 68 51 166 -21 233 -23 21 -94 67 -157
102 -203 112 -242 151 -205 207 18 28 70 54 110 54 23 0 25 4 25 44 0 25 -3
47 -7 49 -5 3 -39 -4 -76 -14z"/>
<path d="M2605 2910 c-153 -4 -170 -7 -173 -23 -10 -50 -95 -47 1607 -46 872
1 1656 4 1741 8 138 5 155 8 158 24 10 50 94 47 -1592 45 -864 -1 -1647 -5
-1741 -8z"/>
<path d="M8605 2911 l-170 -6 0 -25 0 -25 195 -8 c107 -4 1006 -6 1998 -5
1589 3 1804 5 1812 18 12 19 12 21 0 40 -8 13 -227 15 -1837 16 -1005 0 -1904
-2 -1998 -5z"/>
<path d="M2650 2563 c-96 -15 -141 -57 -148 -138 -8 -92 15 -124 162 -228 104
-74 125 -157 55 -221 -29 -26 -37 -28 -91 -24 -49 4 -63 9 -92 37 -19 19 -40
47 -47 62 -6 16 -16 29 -21 29 -14 0 0 -89 17 -116 24 -38 146 -56 216 -32 82
27 121 79 121 159 0 76 -35 125 -142 198 -101 70 -122 95 -122 146 0 70 51
111 125 102 50 -7 80 -28 101 -71 20 -43 38 -39 30 7 -13 76 -13 76 -52 82
-64 10 -86 12 -112 8z"/>
<path d="M3145 2546 c-62 -20 -96 -40 -144 -87 -66 -66 -86 -117 -86 -219 0
-73 4 -93 29 -143 33 -69 100 -126 178 -154 65 -22 232 -24 293 -2 45 16 79
69 73 116 -3 28 -3 28 -33 -16 -72 -107 -234 -124 -347 -38 -91 69 -131 222
-93 352 43 149 225 229 361 158 33 -17 70 -63 87 -108 3 -5 8 -7 12 -3 3 3 4
35 0 71 l-7 64 -50 12 c-65 15 -222 13 -273 -3z"/>
<path d="M4474 2549 c-84 -24 -182 -121 -205 -202 -20 -69 -16 -185 8 -238 96
-212 388 -254 547 -78 24 27 51 70 60 96 23 67 21 180 -5 247 -25 68 -106 146
-175 170 -52 17 -178 20 -230 5z m192 -32 c87 -45 136 -139 142 -272 5 -105
-7 -156 -48 -213 -39 -55 -94 -82 -165 -82 -97 0 -166 43 -210 130 -90 178
-37 394 110 449 39 14 133 7 171 -12z"/>
<path d="M5197 2545 c-89 -33 -172 -122 -197 -210 -18 -64 -9 -189 17 -240 30
-58 90 -114 153 -144 46 -22 69 -26 141 -26 79 0 92 3 155 35 78 40 134 104
156 179 18 64 15 166 -7 231 -24 71 -100 150 -169 173 -61 21 -195 21 -249 2z
m174 -16 c144 -49 222 -276 153 -448 -20 -51 -95 -118 -141 -127 -137 -26
-242 42 -289 185 -23 72 -16 220 13 276 53 100 163 148 264 114z"/>
<path d="M6644 2536 c-72 -34 -129 -88 -161 -154 -23 -48 -27 -70 -28 -142 0
-73 4 -93 28 -142 98 -200 389 -239 536 -71 76 86 103 225 64 339 -23 67 -110
154 -177 177 -76 26 -198 23 -262 -7z m222 -19 c86 -44 136 -139 142 -270 5
-102 -8 -160 -50 -218 -72 -100 -242 -106 -330 -13 -15 16 -39 56 -55 89 -24
52 -28 72 -28 155 0 82 4 103 26 151 27 57 69 97 124 118 39 14 133 7 171 -12z"/>
<path d="M10485 2546 c-62 -20 -98 -41 -142 -86 -67 -66 -88 -120 -88 -221 0
-75 4 -92 30 -144 35 -69 102 -125 180 -152 62 -22 231 -23 290 -2 45 16 79
69 73 115 -3 26 -4 25 -35 -19 -48 -67 -104 -91 -198 -85 -88 6 -150 38 -196
100 -84 116 -78 305 13 404 106 115 304 110 368 -9 14 -26 28 -47 33 -47 8 0
8 62 -2 105 -5 24 -14 32 -46 41 -53 16 -229 16 -280 0z"/>
<path d="M3550 2541 c0 -5 12 -11 27 -13 48 -5 53 -31 53 -285 0 -127 -4 -243
-10 -257 -6 -16 -17 -26 -29 -26 -29 0 -35 -17 -8 -24 31 -8 157 -6 187 4 25
8 25 8 -7 15 -18 4 -38 14 -45 23 -18 21 -24 227 -8 247 10 12 42 15 167 15
87 0 163 -4 174 -10 17 -9 19 -22 19 -98 0 -138 -6 -159 -49 -174 -35 -13 -33
-13 59 -18 52 -3 106 -3 120 -1 24 4 23 5 -9 16 -19 6 -38 20 -42 31 -9 23
-11 479 -3 512 4 15 17 25 36 29 65 13 32 23 -76 23 -64 0 -116 -2 -116 -5 0
-3 15 -11 34 -19 25 -10 35 -22 40 -46 11 -55 7 -185 -6 -198 -13 -13 -311
-18 -342 -6 -13 5 -16 23 -16 89 0 122 7 145 46 161 19 8 34 16 34 19 0 3 -52
5 -115 5 -65 0 -115 -4 -115 -9z"/>
<path d="M5710 2540 c0 -5 10 -10 23 -10 13 0 32 -6 43 -14 18 -14 19 -29 19
-270 0 -277 1 -271 -58 -293 -31 -11 55 -15 365 -18 l52 0 18 59 c20 65 15 85
-11 46 -49 -74 -51 -75 -155 -75 -138 0 -130 -15 -134 263 -4 273 -2 291 39
299 67 13 33 23 -80 23 -74 0 -121 -4 -121 -10z"/>
<path d="M7190 2540 c0 -5 9 -10 19 -10 11 0 27 -10 35 -22 14 -19 16 -61 15
-263 0 -132 -4 -249 -8 -259 -4 -11 -23 -25 -42 -32 -31 -11 -26 -12 67 -15
56 -2 115 -1 130 2 28 6 27 6 -13 14 -39 7 -44 11 -53 46 -6 22 -9 81 -8 131
l3 93 77 3 c90 3 114 -6 123 -48 13 -59 25 -28 25 65 0 52 -2 95 -6 95 -3 0
-10 -14 -16 -31 -13 -38 -41 -49 -128 -49 -84 0 -82 -3 -78 150 l3 105 89 3
c100 3 125 -7 146 -59 12 -28 15 -30 21 -13 4 10 8 38 8 62 l1 42 -205 0
c-130 0 -205 -4 -205 -10z"/>
<path d="M7924 2535 c11 -8 26 -15 33 -15 29 0 33 -37 23 -215 -12 -218 -20
-305 -31 -326 -5 -9 -23 -20 -41 -24 -29 -6 -31 -8 -13 -15 24 -10 130 -12
165 -3 24 6 23 7 -10 18 l-35 12 -3 149 c-1 82 1 186 5 231 l8 83 115 -250
c63 -138 117 -250 120 -250 3 0 61 111 130 248 l125 247 3 -220 c3 -214 2
-220 -19 -237 -12 -10 -29 -18 -38 -19 -12 0 -12 -2 4 -9 23 -10 150 -13 183
-4 21 6 21 7 -10 23 -31 15 -33 20 -39 81 -4 36 -7 154 -8 262 -1 214 2 228
55 228 13 0 24 5 24 10 0 6 -31 10 -74 10 l-74 0 -13 -37 c-14 -43 -205 -433
-219 -447 -11 -11 -192 352 -216 432 l-15 52 -77 0 c-70 -1 -75 -2 -58 -15z"/>
<path d="M8750 2540 c0 -5 8 -10 18 -10 11 0 26 -8 35 -18 15 -16 17 -50 17
-268 0 -137 -4 -256 -10 -264 -5 -8 -26 -20 -47 -26 -33 -10 -17 -12 130 -15
92 -2 197 -4 234 -4 l67 0 19 49 c10 27 17 59 15 70 -2 17 -8 13 -35 -25 -38
-55 -71 -69 -159 -69 -65 0 -113 13 -126 33 -4 7 -8 65 -8 130 l0 117 69 0
c88 0 98 -4 119 -49 l16 -36 4 47 c2 26 2 71 0 100 l-3 53 -20 -40 -20 -40
-82 -3 -83 -3 0 126 0 125 96 0 c92 0 97 -1 122 -28 15 -15 32 -37 39 -47 10
-17 12 -14 12 27 1 83 14 78 -215 78 -129 0 -204 -4 -204 -10z"/>
<path d="M9271 2543 c-10 -4 -4 -11 20 -22 l34 -16 3 -259 c1 -168 -1 -263 -8
-271 -6 -7 -25 -16 -43 -20 -62 -13 2 -24 154 -24 225 -1 297 19 381 106 57
59 81 124 81 214 -1 128 -54 214 -165 265 -61 28 -68 28 -253 31 -104 1 -196
0 -204 -4z m301 -23 c106 -17 173 -65 211 -150 25 -54 28 -171 8 -243 -17 -60
-78 -130 -133 -152 -52 -21 -175 -23 -206 -4 -39 24 -42 53 -40 304 l3 240 35
6 c53 10 61 10 122 -1z"/>
<path d="M9965 2540 c3 -5 15 -10 25 -10 10 0 26 -7 34 -16 14 -14 16 -49 14
-276 -3 -281 1 -262 -58 -286 -19 -8 5 -11 100 -11 109 1 121 2 92 12 -18 7
-37 19 -42 27 -5 8 -10 128 -10 267 0 215 2 254 16 267 8 9 24 16 34 16 10 0
22 5 25 10 4 6 -37 10 -115 10 -78 0 -119 -4 -115 -10z"/>
<path d="M10890 2540 c0 -5 11 -10 24 -10 51 0 56 -23 56 -282 0 -130 -4 -248
-10 -262 -7 -18 -17 -26 -34 -26 -33 0 -42 -16 -13 -24 29 -8 146 -8 187 0 34
7 23 24 -17 24 -36 0 -43 45 -42 284 1 122 4 232 8 245 6 24 13 30 61 49 19 8
-3 11 -97 11 -76 1 -123 -3 -123 -9z"/>
<path d="M11175 2540 c3 -5 14 -10 24 -10 10 0 30 -9 45 -21 l26 -20 -1 -242
c0 -133 -4 -251 -8 -261 -4 -11 -23 -25 -42 -32 -32 -11 -29 -12 53 -15 48 -2
98 -1 110 2 21 5 20 6 -9 13 -56 13 -58 19 -61 260 -3 217 -3 220 16 203 10
-9 113 -125 228 -257 l209 -240 6 73 c4 39 7 168 8 285 1 198 2 213 21 232 11
11 26 20 34 20 8 0 18 5 21 10 4 6 -33 10 -105 10 -108 0 -137 -11 -66 -24 19
-4 37 -14 42 -24 11 -26 18 -425 7 -421 -22 9 -336 364 -381 432 l-25 37 -79
0 c-50 0 -77 -4 -73 -10z"/>
<path d="M11920 2544 c0 -3 14 -10 31 -16 17 -6 34 -21 40 -35 12 -33 11 -449
-1 -494 -9 -33 -15 -37 -53 -44 l-42 -8 60 -9 c33 -4 141 -7 239 -6 l179 3 12
35 c33 98 25 117 -22 50 -36 -51 -74 -64 -175 -58 -111 7 -113 10 -113 156 l0
117 65 3 c87 4 106 -2 119 -39 18 -51 31 -23 31 67 0 84 -12 111 -25 54 -9
-41 -33 -51 -118 -48 l-72 3 0 120 0 120 94 3 c105 3 130 -6 151 -57 7 -17 16
-31 21 -31 10 0 12 44 3 89 l-6 31 -209 0 c-115 0 -209 -2 -209 -6z"/>
<path d="M855 2355 c35 -16 165 -20 165 -5 0 7 -27 10 -72 8 -40 -2 -84 0 -98
4 -19 6 -18 4 5 -7z"/>
</g>
</svg>
